/* XPM */
static const char * camera[] = {
"16 16 146 2",
"  	c None",
". 	c #202020",
"+ 	c #292929",
"@ 	c #1A1A1A",
"# 	c #171717",
"$ 	c #C7C8C7",
"% 	c #FFFFFF",
"& 	c #B3B3B2",
"* 	c #868785",
"= 	c #AAABA9",
"- 	c #AAAAA9",
"; 	c #676865",
"> 	c #141414",
", 	c #30312E",
"' 	c #525350",
") 	c #5A5B57",
"! 	c #646561",
"~ 	c #313230",
"{ 	c #181818",
"] 	c #222222",
"^ 	c #1F1F1F",
"/ 	c #191919",
"( 	c #1A1B1A",
"_ 	c #1E1E1D",
": 	c #484947",
"< 	c #555654",
"[ 	c #111211",
"} 	c #282828",
"| 	c #787977",
"1 	c #737472",
"2 	c #C4C4C4",
"3 	c #C3C3C3",
"4 	c #6B6D69",
"5 	c #4D4E4A",
"6 	c #575A58",
"7 	c #5B605F",
"8 	c #616562",
"9 	c #676964",
"0 	c #7E807D",
"a 	c #656663",
"b 	c #808180",
"c 	c #0A0A0A",
"d 	c #2E2E2E",
"e 	c #6B6C6B",
"f 	c #2B2C29",
"g 	c #606060",
"h 	c #6A6A69",
"i 	c #555856",
"j 	c #798488",
"k 	c #838D90",
"l 	c #7E8487",
"m 	c #666C6F",
"n 	c #50575C",
"o 	c #535755",
"p 	c #4A4C49",
"q 	c #343532",
"r 	c #747574",
"s 	c #292A29",
"t 	c #60615F",
"u 	c #2A2B29",
"v 	c #373835",
"w 	c #565856",
"x 	c #757E82",
"y 	c #6E7375",
"z 	c #56595A",
"A 	c #4F5354",
"B 	c #4F5153",
"C 	c #4A4F50",
"D 	c #5E6364",
"E 	c #363938",
"F 	c #212221",
"G 	c #6C6C6B",
"H 	c #272727",
"I 	c #5D5E5C",
"J 	c #393A37",
"K 	c #5E6365",
"L 	c #4E5254",
"M 	c #555859",
"N 	c #282C2E",
"O 	c #121415",
"P 	c #212426",
"Q 	c #494C4D",
"R 	c #383D3F",
"S 	c #525658",
"T 	c #272726",
"U 	c #383A38",
"V 	c #545859",
"W 	c #323839",
"X 	c #131516",
"Y 	c #0E0E0E",
"Z 	c #010101",
"` 	c #020202",
" .	c #141515",
"..	c #2E3334",
"+.	c #303131",
"@.	c #616160",
"#.	c #3F4241",
"$.	c #32383A",
"%.	c #1C2021",
"&.	c #191A1A",
"*.	c #686868",
"=.	c #121212",
"-.	c #2E3030",
";.	c #2E3436",
">.	c #3A3E3F",
",.	c #606160",
"'.	c #0A0A09",
").	c #484A49",
"!.	c #151718",
"~.	c #9A9A9A",
"{.	c #7D7D7D",
"].	c #393B3B",
"^.	c #2F3537",
"/.	c #353939",
"(.	c #60605F",
"_.	c #2C2D2A",
":.	c #3E403E",
"<.	c #1D1F20",
"[.	c #383838",
"}.	c #8C8C8C",
"|.	c #8B8B8B",
"1.	c #414141",
"2.	c #4A4B4B",
"3.	c #363A3B",
"4.	c #575856",
"5.	c #070707",
"6.	c #242424",
"7.	c #4D4E4D",
"8.	c #535453",
"9.	c #4F504F",
"0.	c #515454",
"a.	c #2B2F30",
"b.	c #0F0F0F",
"c.	c #484848",
"d.	c #717271",
"e.	c #505251",
"f.	c #535657",
"g.	c #444747",
"h.	c #3C3C3C",
"i.	c #080808",
"j.	c #323536",
"k.	c #3A3A3A",
"l.	c #29292A",
"m.	c #262626",
"n.	c #212121",
"o.	c #252626",
"            . + + + @           ",
"          # $ % % % & #         ",
"          # * = = - ; #         ",
"          > , ' ) ! ~ {         ",
"  ] ^ / ( _ :       < [ { / .   ",
"} | 1 2 3 4 5 6 7 8 9 0 a | b c ",
"d e f g h i j k l m n o p q r c ",
"s t u v w x y z A B C D E F G c ",
"H I u J K L M N O P Q R S T e c ",
"H I u U V W X Y Z `  ...W +.@.c ",
"H I u #.$.%.&.% *.. =.-.;.>.,.'.",
"H I u ).;.!.. *.~.{.H ].^./.(.'.",
"H I _.:.;.<.Z [.}.|.1.2.^.3.4.5.",
"6.7.8.9.0.a.b.] H c.d.e.f.g.h.# ",
"  6.. . i.;.j.. } k.l.m.n.. n.  ",
"            6.m.o.m.6.          "};
