/* XPM */
static char *clock[] = {
/* columns rows colors chars-per-pixel */
"48 48 23 1",
"  c gray9",
". c #181818",
"X c #191919",
"o c gray10",
"O c #1B1B1B",
"+ c gray12",
"@ c gray16",
"# c #2C2C2C",
"$ c #343434",
"% c #373737",
"& c #3A3A3A",
"* c #3E3E3E",
"= c gray27",
"- c gray29",
"; c #4B4B4B",
": c #4C4C4C",
"> c #626262",
", c gray39",
"< c DimGray",
"1 c #6A6A6A",
"2 c #838383",
"3 c #848484",
"4 c None",
/* pixels */
"444444444444444444444444444444444444444444444444",
"444444444444444444444444444444444444444444444444",
"444444444444444444444444444444444444444444444444",
"444444444444444444444443444444444444444444444444",
"444444444444444444444433334444444444444444444444",
"444444444444444444444433234444444444444444444444",
"444444444444444444444433334444444444444444444444",
"444444444444444444444433234444XX.444444444444444",
"444444444444444444444432334444XX.444444444444444",
"44444444441444444444443333444XXXX444::4444444444",
"44444444411<14444444443233444.XX444:;::444444444",
"44444444<1111144444444333344X..X44::;::444444444",
"4444444441111114444444333444XXX44:::::4444444444",
"44444444441111<1444444444444XX.4:;:::44444444444",
"444444444441111114444444444.X.44;::::44444444444",
"4444444444441111<4444444444X.X4:::;:444444444444",
"44444444444441114444444444XXX44;:::4444444444444",
"44444444444444444444444444X..4444444444444444444",
"4444444444444444444444444XX.44444444444444444444",
"4444444444444444444444444X.X44444444444444444444",
"444444444444444444444444..X.44444444444444444444",
"44444444444444444444444XXXX444444444444444444444",
"4444444444444444444444XX.X.444444444444444444444",
"4444,,>>>>,,,444444444XXXXX44444444:;:::::::4444",
"4444,,,,,,,,,444444444.XXXX44444444:;:::::::4444",
"4444,,,,,,,>>444444444X.XXXX4444444:::::::::4444",
"44444444444444444444444XXXXXX4444444444444444444",
"44444444444444444444444444XX..444444444444444444",
"444444444444444444444444444XXXX44444444444444444",
"4444444444444444444444444444XXXX4444444444444444",
"44444444444444444444444444444XXX.444444444444444",
"44444444444444:;:4444444444444 ..+44444444444444",
"4444444444444:::::444444444444%o..@4444444444444",
"444444444444:::::44444444444444&O.#-444444444444",
"444444444444:::::444444444444444*$=::44444444444",
"44444444444:;:;:444444:;;44444444::;::4444444444",
"4444444444:;:::4444444::::44444444::::4444444444",
"4444444444::::44444444:;::444444444:::4444444444",
"44444444444::444444444::::4444444444444444444444",
"4444444444444444444444::;:4444444444444444444444",
"4444444444444444444444::::4444444444444444444444",
"4444444444444444444444:;::4444444444444444444444",
"4444444444444444444444::::4444444444444444444444",
"4444444444444444444444:::44444444444444444444444",
"44444444444444444444444:444444444444444444444444",
"444444444444444444444444444444444444444444444444",
"444444444444444444444444444444444444444444444444",
"444444444444444444444444444444444444444444444444"
};
