/* XPM */
static const char * colmap_solid[] = {
"32 32 3 1",
" 	c None",
".	c #000000",
"+	c #FF6000",
"                                ",
"                                ",
"                                ",
"                                ",
"                                ",
"    .......................     ",
"    .+++++++++++++++++++++.     ",
"    .+++++++++++++++++++++.     ",
"    .+++++++++++++++++++++.     ",
"    .+++++++++++++++++++++.     ",
"    .+++++++++++++++++++++.     ",
"    .+++++++++++++++++++++.     ",
"    .+++++++++++++++++++++.     ",
"    .+++++++++++++++++++++.     ",
"    .+++++++++++++++++++++.     ",
"    .+++++++++++++++++++++.     ",
"    .+++++++++++++++++++++.     ",
"    .+++++++++++++++++++++.     ",
"    .+++++++++++++++++++++.     ",
"    .+++++++++++++++++++++.     ",
"    .+++++++++++++++++++++.     ",
"    .+++++++++++++++++++++.     ",
"    .+++++++++++++++++++++.     ",
"    .+++++++++++++++++++++.     ",
"    .+++++++++++++++++++++.     ",
"    .+++++++++++++++++++++.     ",
"    .......................     ",
"                                ",
"                                ",
"                                ",
"                                ",
"                                "};
