/* XPM */
static const char * colmap_rainbow[] = {
"32 32 12 1",
" 	c None",
".	c #000000",
"+	c #4CB2D4",
"@	c #FF0000",
"#	c #71D756",
"$	c #DE9E2D",
"%	c #213F7C",
"&	c #BD38D9",
"*	c #EAE593",
"=	c #93DBEA",
"-	c #B0EA93",
";	c #495842",
"                                ",
"                                ",
"                                ",
"                                ",
"                                ",
"    .......................     ",
"    .+++++++++++++++++++++.     ",
"    .+++++++++++++++++++++.     ",
"    .@@@@@@@@@@@@@@@@@@@@@.     ",
"    .@@@@@@@@@@@@@@@@@@@@@.     ",
"    .#####################.     ",
"    .#####################.     ",
"    .$$$$$$$$$$$$$$$$$$$$$.     ",
"    .$$$$$$$$$$$$$$$$$$$$$.     ",
"    .%%%%%%%%%%%%%%%%%%%%%.     ",
"    .%%%%%%%%%%%%%%%%%%%%%.     ",
"    .&&&&&&&&&&&&&&&&&&&&&.     ",
"    .&&&&&&&&&&&&&&&&&&&&&.     ",
"    .*********************.     ",
"    .*********************.     ",
"    .=====================.     ",
"    .=====================.     ",
"    .---------------------.     ",
"    .---------------------.     ",
"    .;;;;;;;;;;;;;;;;;;;;;.     ",
"    .;;;;;;;;;;;;;;;;;;;;;.     ",
"    .......................     ",
"                                ",
"                                ",
"                                ",
"                                ",
"                                "};
