/* XPM */
static const char * compute_cc[] = {
"32 32 5 1",
" 	c None",
".	c #FFFFFF",
"+	c #FFD9C2",
"@	c #963900",
"#	c #FF6000",
"                                ",
"                                ",
"                                ",
"                                ",
"         ....                   ",
"      ....++....                ",
"     ..++++++++..               ",
"    ..++++++++++..              ",
"   ..++++++++++++..             ",
"  ..++++++++++++++..            ",
"  .++++++++++++++@@......       ",
"  .+++++++++++++@@@@####...     ",
" ..++++++++++++@@@@@@#####..    ",
" .++++++++++++@@@@@@@######..   ",
" .+++++++++++@@@@@@@@#######..  ",
" ..++++++++++@@@@@@@#########.  ",
"  .+++++++++@@@@@@@@#########.. ",
"  .+++++++++@@@@@@@###########. ",
"  ..+++++++++@@@@@@###########. ",
"   ..++++++++@@@@@############. ",
"    ..+++++++@@@@#############. ",
"     ..+++++++@@#############.. ",
"      ....++...##############.  ",
"         .... .#############..  ",
"              ..###########..   ",
"               ..#########..    ",
"                ...#####...     ",
"                  .......       ",
"                                ",
"                                ",
"                                ",
"                                "};
