/* XPM */
static const char * compute_rmsd[] = {
"32 32 4 1",
" 	c None",
".	c #FFFFFF",
"+	c #FF6000",
"@	c #000000",
"                                ",
"                                ",
"                                ",
"                                ",
"                                ",
"    .......           .......   ",
"   ..+++++..         ..+++++..  ",
"  ..+++++++..       ..+++++++.. ",
"  .+++++++++.       .+++++++++. ",
"  .+++++++++.       .+++++++++. ",
"  .+++++++++.       .+++++++++. ",
"  .+++++++++.       .+++++++++. ",
"  .+++++++++.       .+++++++++. ",
"  ..+++++++..       ..+++++++.. ",
"   ..+++++..         ..+++++..  ",
"    .......           .......   ",
"                                ",
"                                ",
"    @..@..@..@..@..@..@..@..@   ",
"    @..@..@..@..@..@..@..@..@   ",
"    @..@..@..@..@..@..@..@..@   ",
"    @.....@.....@.....@.....@   ",
"    @.....@.....@.....@.....@   ",
"    @.....@.....@.....@.....@   ",
"    @.....@.....@.....@.....@   ",
"    @.....@.....@.....@.....@   ",
"    .........................   ",
"    .........................   ",
"                                ",
"                                ",
"                                ",
"                                "};
