/* XPM */
static const char * coordSys[] = {
"52 52 185 2",
"  	c None",
". 	c #00B000",
"+ 	c #00AA00",
"@ 	c #00FF00",
"# 	c #00FE00",
"$ 	c #00E000",
"% 	c #00D200",
"& 	c #00B300",
"* 	c #00F500",
"= 	c #00A100",
"- 	c #008100",
"; 	c #00E400",
"> 	c #00FA00",
", 	c #00CF00",
"' 	c #007600",
") 	c #00C100",
"! 	c #00EB00",
"~ 	c #006400",
"{ 	c #00B400",
"] 	c #00E800",
"^ 	c #00F100",
"/ 	c #00CC00",
"( 	c #009900",
"_ 	c #004600",
": 	c #009100",
"< 	c #00D000",
"[ 	c #00F400",
"} 	c #00F600",
"| 	c #00D800",
"1 	c #00BB00",
"2 	c #008900",
"3 	c #007500",
"4 	c #00C200",
"5 	c #00EA00",
"6 	c #00FB00",
"7 	c #00C800",
"8 	c #006E00",
"9 	c #00B600",
"0 	c #00E200",
"a 	c #00F800",
"b 	c #00ED00",
"c 	c #00D500",
"d 	c #00B800",
"e 	c #009000",
"f 	c #005D00",
"g 	c #00D100",
"h 	c #00EE00",
"i 	c #00F300",
"j 	c #00C600",
"k 	c #007B00",
"l 	c #A90000",
"m 	c #8A0000",
"n 	c #600000",
"o 	c #C90000",
"p 	c #B50000",
"q 	c #950000",
"r 	c #770000",
"s 	c #F10000",
"t 	c #E60000",
"u 	c #DC0000",
"v 	c #C10000",
"w 	c #AE0000",
"x 	c #830000",
"y 	c #470000",
"z 	c #FF0000",
"A 	c #F30000",
"B 	c #E80000",
"C 	c #BB0000",
"D 	c #A70000",
"E 	c #550000",
"F 	c #5D0000",
"G 	c #DD0000",
"H 	c #B30000",
"I 	c #7C0000",
"J 	c #00004D",
"K 	c #000061",
"L 	c #00006B",
"M 	c #000073",
"N 	c #F80000",
"O 	c #DE0000",
"P 	c #AC0000",
"Q 	c #0000D2",
"R 	c #0000DC",
"S 	c #0000E6",
"T 	c #0000ED",
"U 	c #0000F4",
"V 	c #000052",
"W 	c #000064",
"X 	c #00006E",
"Y 	c #000077",
"Z 	c #00007B",
"` 	c #750000",
" .	c #0000BF",
"..	c #0000CB",
"+.	c #0000D7",
"@.	c #0000E1",
"#.	c #0000EB",
"$.	c #0000F3",
"%.	c #0000F8",
"&.	c #0000FE",
"*.	c #0000FF",
"=.	c #00005D",
"-.	c #00006A",
";.	c #000070",
">.	c #000075",
",.	c #000079",
"'.	c #A80000",
").	c #0000B5",
"!.	c #0000C1",
"~.	c #0000CF",
"{.	c #0000E9",
"].	c #0000F1",
"^.	c #00006C",
"/.	c #00007A",
"(.	c #000078",
"_.	c #000074",
":.	c #00006D",
"<.	c #D70000",
"[.	c #0000A8",
"}.	c #0000B6",
"|.	c #0000C6",
"1.	c #0000D1",
"2.	c #0000EF",
"3.	c #00005F",
"4.	c #000045",
"5.	c #7B0000",
"6.	c #F90000",
"7.	c #D80000",
"8.	c #9D0000",
"9.	c #0000A7",
"0.	c #0000B8",
"a.	c #0000CA",
"b.	c #00007C",
"c.	c #000072",
"d.	c #FE0000",
"e.	c #F40000",
"f.	c #D90000",
"g.	c #C30000",
"h.	c #00009A",
"i.	c #0000A3",
"j.	c #0000B9",
"k.	c #0000CE",
"l.	c #0000F2",
"m.	c #00006F",
"n.	c #000065",
"o.	c #00005B",
"p.	c #EE0000",
"q.	c #DB0000",
"r.	c #C50000",
"s.	c #920000",
"t.	c #000096",
"u.	c #0000A1",
"v.	c #0000B1",
"w.	c #E90000",
"x.	c #DF0000",
"y.	c #C60000",
"z.	c #A10000",
"A.	c #5E0000",
"B.	c #000093",
"C.	c #00009E",
"D.	c #0000FC",
"E.	c #B00000",
"F.	c #880000",
"G.	c #00008E",
"H.	c #000094",
"I.	c #0000B0",
"J.	c #00008B",
"K.	c #00008D",
"L.	c #000098",
"M.	c #0000AE",
"N.	c #0000D0",
"O.	c #0000E0",
"P.	c #0000E3",
"Q.	c #0000E5",
"R.	c #000097",
"S.	c #0000AF",
"T.	c #0000D4",
"U.	c #0000DF",
"V.	c #0000E4",
"W.	c #0000BD",
"X.	c #0000C3",
"Y.	c #0000A4",
"Z.	c #0000B7",
"`.	c #0000C2",
" +	c #0000A0",
"                                                                                                        ",
"                                                                                                        ",
"                                                                                                        ",
"                                                                                                        ",
"                                          . +                                                           ",
"                                          @ #                                                           ",
"                                        $ @ @ %                                                         ",
"                                      & @ @ @ * =                                                       ",
"                                    - ; @ @ @ > , '                                                     ",
"                                    ) @ @ @ @ @ ! + ~                                                   ",
"                                  { ] @ @ @ @ @ ^ / ( _                                                 ",
"                                : < [ @ @ @ @ @ } | 1 2                                                 ",
"                              3 4 5 @ @ @ @ @ @ 6 ] 7 = 8                                               ",
"                              9 0 a @ @ @ @ @ @ @ b c d e f                                             ",
"                            = g h @ @ @ @ @ @ @ @ i                                                     ",
"                                      j @ @ @ [ k                                                       ",
"                                      j @ @ @ [ k                                                       ",
"                                      j @ @ @ [ k                                                       ",
"                                      j @ @ @ [ k                                                       ",
"                                      j @ @ @ [ k                                                       ",
"                                      j @ @ @ [ k                                                       ",
"                                      j @ @ @ [ k                                                       ",
"                                      j @ @ @ [ k                                                       ",
"                                      j @ @ @ [ k                                                       ",
"                                      j @ @ @ [ k                                                       ",
"                                      j @ @ @ [ k                                                       ",
"                                      j @ @ @ [ k                                                       ",
"                                      j @ @ @ [ k                                 l m n                 ",
"                                      j @ @ @ [ k                                 o p q r               ",
"                                      j @ @ @ [ k                               s t u v w x y           ",
"                                      j @ @ @ [ k                               z z A B u C D E         ",
"                                      j @ @ @ [ F F F F F F F F F F F F F F F F z z z z z B G H I       ",
"                                      J K L M N N N N N N N N N N N N N N N N N z z z z z z z z O P     ",
"          Q R S T U               V W X M Y Z z z z z z z z z z z z z z z z z z z z z z z z z z z z z ` ",
"       ...+.@.#.$.%.&.*.      =.-.;.>.,.Z Z Y z z z z z z z z z z z z z z z z z z z z z z z z z z z z '.",
"    ).!.~.R {.].%.&.*.*.*.K ^.M Y /.Z Z (._.:.z z z z z z z z z z z z z z z z z z z z z z z z z z <.    ",
"  [.}.|.1.@.2.%.&.*.*.*.*.*.,.Z Z Z (.M ^.3.4.5.5.5.5.5.5.5.5.I I I I I I I I z z z z z z z 6.7.8.      ",
"  9.0.a.R T %.&.*.*.*.*.*.*.b./.Y c.-.=.                                      z z z z d.e.f.g.          ",
"h.i.j.k.@.l.&.*.*.*.*.*.*.*.*.m.n.o.                                            z N p.q.r.s.            ",
"t.u.v.1.].&.*.*.*.*.*.*.*.*.*.V                                                 w.x.y.z.A.              ",
"B.C.v.@.D.*.*.*.*.*.*.*.*.*.*.                                                  y.E.F.                  ",
"G.H.I.$.*.*.*.*.*.*.*.&.&.&.&.                                                                          ",
"J.K.L.*.&.&.&.&.&.&.&.&.D.D.D.                                                                          ",
"  J.J.M.N.O.P.Q.2.].l.l.$.U                                                                             ",
"  J.G.R.S. .~.T.U.@.V.S {.#.                                                                            ",
"    G.t.u.S.W.X.~.T.+.R @.                                                                              ",
"      H.h.Y.S.Z.`.|.~.Q                                                                                 ",
"           +9.I.Z. .                                                                                    ",
"                                                                                                        ",
"                                                                                                        ",
"                                                                                                        ",
"                                                                                                        "};
