/* XPM */
static const char * dockTool[] = {
"24 24 41 1",
" 	c None",
".	c #D7B8A4",
"+	c #D75100",
"@	c #E48B55",
"#	c #F6F6F6",
"$	c #7E3000",
"%	c #E48B56",
"&	c #FDFDFD",
"*	c #595858",
"=	c #B28468",
"-	c #FFFFFF",
";	c #636262",
">	c #000000",
",	c #B38569",
"'	c #414140",
")	c #020202",
"!	c #FEFEFE",
"~	c #4F4F4F",
"{	c #BCBCBC",
"]	c #919191",
"^	c #DD6F2C",
"/	c #C7C7C7",
"(	c #969696",
"_	c #C5C5C5",
":	c #BDBDBD",
"<	c #626262",
"[	c #929191",
"}	c #C6C6C6",
"|	c #919090",
"1	c #010101",
"2	c #DDDDDD",
"3	c #DEDEDE",
"4	c #606060",
"5	c #DE7130",
"6	c #D7D7D7",
"7	c #DADADA",
"8	c #6D6D6D",
"9	c #707070",
"0	c #5E5E5E",
"a	c #E5905D",
"b	c #E7BCA1",
"                        ",
"                        ",
"  .+++++ .@##@+ .+++++  ",
"  ++++++$%&**&%$++++++$ ",
"  ++++++=-;>>;-,++++++$ ",
"  ++++++-'>))>'!++++++$ ",
"  +++~~~-{]>>]{!~~~+++$ ",
"  ++~~+++^/>>/^+++~~++$ ",
"   $(--+++_>>_+++--($$$ ",
"  .%-':^+^/>>/^+^:'-%+  ",
"  %&<>[}_}|>>|}_}[><&%$ ",
"  #*>)>>>>>11>>>>>)>*#$ ",
"  #*>)>>>>>11>>>>>)>*#$ ",
"  %&;>]}_}]>>]}_}]>;&%$ ",
"  +%-':^~2/>>/345:'-%+$ ",
"   $=--$~6_>>_7~ --=$$$ ",
"  .+++++~8/>>/94.+++++  ",
"  ++++++-{]>>]{!++++++$ ",
"  ++++++-'>))>'!++++++$ ",
"  ++++++=-;>>;-,++++++$ ",
"  ++++++$%&00&%$++++++$ ",
"  ++++++$+abba+$++++++$ ",
"   $$$$$$ $$$$$$ $$$$$$ ",
"                        "};
