/* XPM */
static const char * eraser_medium[] = {
"24 24 278 2",
"  	c None",
". 	c #CBB4A5",
"+ 	c #D8BEAE",
"@ 	c #C8B4A2",
"# 	c #C6AB9F",
"$ 	c #EFCFC0",
"% 	c #FCDDCB",
"& 	c #F9DAC6",
"* 	c #E0B5AC",
"= 	c #B88A88",
"- 	c #B7A19B",
"; 	c #C8A99F",
"> 	c #F8CDC0",
", 	c #F4C1B3",
"' 	c #F0B9AB",
") 	c #F0BAA8",
"! 	c #F5B6AB",
"~ 	c #F5B3AE",
"{ 	c #BB8A7E",
"] 	c #B69B86",
"^ 	c #AA8E88",
"/ 	c #E1B6AB",
"( 	c #FAC0B0",
"_ 	c #FAB3A2",
": 	c #F0A18F",
"< 	c #FEAA97",
"[ 	c #FEA591",
"} 	c #F29887",
"| 	c #EB907F",
"1 	c #F69986",
"2 	c #DD8A74",
"3 	c #B17565",
"4 	c #B3948F",
"5 	c #AE877E",
"6 	c #F6BDAF",
"7 	c #F7AD98",
"8 	c #FFA187",
"9 	c #FF977B",
"0 	c #FFA084",
"a 	c #FF987B",
"b 	c #FF7C63",
"c 	c #F97D61",
"d 	c #FF8766",
"e 	c #EF6240",
"f 	c #DD3D21",
"g 	c #C53C27",
"h 	c #7F3C2C",
"i 	c #9A928F",
"j 	c #D09989",
"k 	c #FDC0A9",
"l 	c #F29D83",
"m 	c #DA6D4D",
"n 	c #DA5E3A",
"o 	c #DB562E",
"p 	c #D2431A",
"q 	c #C62D07",
"r 	c #E23718",
"s 	c #D9411C",
"t 	c #B82800",
"u 	c #CC2200",
"v 	c #FC3E19",
"w 	c #FF5237",
"x 	c #8C260C",
"y 	c #FDEACD",
"z 	c #D0C0BD",
"A 	c #AD9286",
"B 	c #EDC2AF",
"C 	c #FD965E",
"D 	c #CF501E",
"E 	c #C92B00",
"F 	c #F13312",
"G 	c #F14219",
"H 	c #C73607",
"I 	c #C72D00",
"J 	c #F53904",
"K 	c #E2360A",
"L 	c #DB1702",
"M 	c #E42C12",
"N 	c #FA703B",
"O 	c #ED4F13",
"P 	c #F12A04",
"Q 	c #AD2719",
"R 	c #B7B6B8",
"S 	c #DBD0CC",
"T 	c #FAE4D8",
"U 	c #C09587",
"V 	c #D93E2A",
"W 	c #FD361F",
"X 	c #FC2F0C",
"Y 	c #FC4008",
"Z 	c #D62800",
"` 	c #E83300",
" .	c #FB3F0F",
"..	c #DD2A03",
"+.	c #BD2A00",
"@.	c #F34E2F",
"#.	c #F86649",
"$.	c #E93A08",
"%.	c #F72E00",
"&.	c #FF2605",
"*.	c #AF200F",
"=.	c #F8E8D4",
"-.	c #BCC2C4",
";.	c #EFF1F1",
">.	c #E6E3DF",
",.	c #C2B9B0",
"'.	c #CBB8AD",
").	c #D59A8E",
"!.	c #E16354",
"~.	c #EB3815",
"{.	c #FB4104",
"].	c #FF3A00",
"^.	c #FF3404",
"/.	c #FA330E",
"(.	c #DF3413",
"_.	c #FD8B57",
":.	c #F2542D",
"<.	c #F3300F",
"[.	c #FA2B00",
"}.	c #FF2500",
"|.	c #FF2005",
"1.	c #A8260F",
"2.	c #B9B8B2",
"3.	c #DCDEDB",
"4.	c #FAFFFF",
"5.	c #D0D6D6",
"6.	c #BEC1C0",
"7.	c #C4C4C0",
"8.	c #C8C8C2",
"9.	c #BFCFC4",
"0.	c #C6B5A1",
"a.	c #E29977",
"b.	c #D65728",
"c.	c #E64710",
"d.	c #E13904",
"e.	c #F66032",
"f.	c #FD7C53",
"g.	c #DF4306",
"h.	c #F93205",
"i.	c #FF2701",
"j.	c #FC2D00",
"k.	c #ED2B00",
"l.	c #E13B15",
"m.	c #A24D3A",
"n.	c #ABA8A3",
"o.	c #F1F1EE",
"p.	c #E1E5E4",
"q.	c #C5CACB",
"r.	c #C9D0CF",
"s.	c #C9CECC",
"t.	c #CED1CF",
"u.	c #DACACE",
"v.	c #DCC9CB",
"w.	c #CEC5B9",
"x.	c #CDC2A9",
"y.	c #C69973",
"z.	c #F1A174",
"A.	c #EF6B34",
"B.	c #E13D00",
"C.	c #F83A00",
"D.	c #FF2800",
"E.	c #E13202",
"F.	c #B84E1A",
"G.	c #BD815E",
"H.	c #E6C4BB",
"I.	c #A8A4A2",
"J.	c #C3C2C0",
"K.	c #CACACA",
"L.	c #D9DBDA",
"M.	c #CDD1D2",
"N.	c #D8DEDE",
"O.	c #D1D7D7",
"P.	c #D4DCD3",
"Q.	c #EBCDDD",
"R.	c #DBCEE0",
"S.	c #BDE0DD",
"T.	c #D8C8BE",
"U.	c #F35F53",
"V.	c #F72D04",
"W.	c #F34100",
"X.	c #FD3200",
"Y.	c #F92E00",
"Z.	c #E73A0F",
"`.	c #CF693E",
" +	c #CEB38F",
".+	c #AFAAAE",
"++	c #D0CCCE",
"@+	c #BAB6B8",
"#+	c #BFBEBC",
"$+	c #DCDCDC",
"%+	c #DDDFDE",
"&+	c #DDE5E2",
"*+	c #C3EFDC",
"=+	c #E3DBE3",
"-+	c #E9DEF0",
";+	c #C0D6D7",
">+	c #E5B6B2",
",+	c #F84845",
"'+	c #FF2F0D",
")+	c #F13700",
"!+	c #E43606",
"~+	c #D15224",
"{+	c #D79167",
"]+	c #E6CBB1",
"^+	c #ACA8AE",
"/+	c #D8D2D6",
"(+	c #C7C2C3",
"_+	c #B8B3B2",
":+	c #BEBBB9",
"<+	c #D9D8D6",
"[+	c #ECECEB",
"}+	c #F1E8ED",
"|+	c #F7E5F1",
"1+	c #D1D7D9",
"2+	c #BBD5C1",
"3+	c #E0C1A6",
"4+	c #DF5839",
"5+	c #F63E0A",
"6+	c #E53D00",
"7+	c #D15233",
"8+	c #E0AF89",
"9+	c #DAE3BA",
"0+	c #B8B8B9",
"a+	c #D6D5D6",
"b+	c #CCCBCC",
"c+	c #C1C0C1",
"d+	c #BFBEBF",
"e+	c #C5C5C5",
"f+	c #CECFD0",
"g+	c #E8F0F2",
"h+	c #E5E1EA",
"i+	c #D2D5D7",
"j+	c #D1D7C4",
"k+	c #ECC1A6",
"l+	c #C75A3D",
"m+	c #B44521",
"n+	c #AE7040",
"o+	c #DCC7BD",
"p+	c #9D9D9D",
"q+	c #B8B8B8",
"r+	c #DBDBDB",
"s+	c #CECECE",
"t+	c #C6C6C6",
"u+	c #CCCCCC",
"v+	c #F0F5F0",
"w+	c #E2DEE0",
"x+	c #DCE0E2",
"y+	c #CDD7CC",
"z+	c #DBC2B4",
"A+	c #80362D",
"B+	c #D9998E",
"C+	c #EAD6C3",
"D+	c #BEBEBE",
"E+	c #BFBFBF",
"F+	c #D4D4D4",
"G+	c #D1D1D1",
"H+	c #D7D7D5",
"I+	c #F4F2E6",
"J+	c #F5F0ED",
"K+	c #DBE3E3",
"L+	c #AEBEBD",
"M+	c #94908F",
"N+	c #DFBABF",
"O+	c #A9A9A9",
"P+	c #959595",
"Q+	c #CDCDCD",
"R+	c #DDDDDB",
"S+	c #F8F4E9",
"T+	c #F0F0ED",
"U+	c #8F999C",
"V+	c #9CA9AC",
"W+	c #9B9B9B",
"X+	c #AAAAA9",
"Y+	c #D4D2CE",
"Z+	c #8C9495",
"`+	c #B9C4C9",
" @	c #B5B5B5",
".@	c #A3A0A0",
"                                                ",
"                                                ",
"                            . + @               ",
"                          # $ % & * =           ",
"                      - ; > , ' ) ! ~ { ]       ",
"                    ^ / ( _ : < [ } | 1 2 3     ",
"                4 5 6 7 8 9 0 a b c d e f g h   ",
"              i j k l m n o p q r s t u v w x y ",
"          z A B C D E F G H I J K L M N O P Q   ",
"        R S T U V W X Y Z `  ...+.@.#.$.%.&.*.=.",
"      -.;.>.,.'.).!.~.{.].^./.(._.:.<.[.}.|.1.  ",
"  2.3.4.5.6.7.8.9.0.a.b.c.d.e.f.g.h.i.j.k.l.m.  ",
"  n.o.p.q.r.s.t.u.v.w.x.y.z.A.B.C.D.D.E.F.G.H.  ",
"  I.J.K.L.M.N.O.P.Q.R.S.T.U.V.W.X.Y.Z.`. +      ",
"  .+++@+#+$+%+&+*+=+-+;+>+,+'+)+!+~+{+]+        ",
"  ^+/+(+_+:+<+[+}+|+1+2+3+4+5+6+7+8+9+          ",
"  0+a+b+c+d+e+f+g+h+i+j+k+l+m+n+o+              ",
"  p+q+r+s+t+s+u+v+w+x+y+z+A+B+C+                ",
"    D+p+E+F+G+H+I+J+K+L+M+N+                    ",
"        O+P+Q+R+S+T+U+V+                        ",
"            W+X+Y+Z+`+                          ",
"               @.@                              ",
"                                                ",
"                                                "};
