/* XPM */
static const char * eye_medium_disable[] = {
"24 24 4 1",
" 	c None",
".	c #C8C8C8",
"+	c #646464",
"@	c #FFFFFF",
"                        ",
"                        ",
"                        ",
"                        ",
"                        ",
"                        ",
"        .......         ",
"      ...+++++...       ",
"    ...+++++++++...     ",
"   ..+++++++++++++..    ",
"  ..+++ ++@+++. +++..   ",
"  .+++  ++++++.  +++.   ",
"  .++   ++++++.   ++.   ",
"  ..++   +++++.  ++..   ",
"   ..++  ++++.  ++..    ",
"    ..+++.....+++..     ",
"     ..+++++++++..      ",
"      ...+++++...       ",
"        .......         ",
"                        ",
"                        ",
"                        ",
"                        ",
"                        "};
