/* XPM */
static const char * eye_medium[] = {
"24 24 5 1",
" 	c None",
".	c #DCDCDC",
"+	c #000000",
"@	c #FFFFFF",
"#	c #777777",
"                        ",
"                        ",
"                        ",
"                        ",
"                        ",
"                        ",
"        .......         ",
"      ...+++++...       ",
"    ...+++++++++...     ",
"   ..+++++++++++++..    ",
"  ..+++ ++@+++# +++..   ",
"  .+++  ++++++#  +++.   ",
"  .++   ++++++#   ++.   ",
"  ..++   +++++#  ++..   ",
"   ..++  ++++#  ++..    ",
"    ..+++#####+++..     ",
"     ..+++++++++..      ",
"      ...+++++...       ",
"        .......         ",
"                        ",
"                        ",
"                        ",
"                        ",
"                        "};
