/* XPM */
static const char * fetchTool[] = {
"24 24 371 2",
"  	c None",
". 	c #5AB052",
"+ 	c #4AA244",
"@ 	c #45A528",
"# 	c #50A251",
"$ 	c #306386",
"% 	c #21458F",
"& 	c #E1E0DE",
"* 	c #D5D3D2",
"= 	c #CBD3C6",
"- 	c #C5DEB8",
"; 	c #ABDC93",
"> 	c #7DD153",
", 	c #66C64B",
"' 	c #4C9F69",
") 	c #53BC27",
"! 	c #4D976D",
"~ 	c #33688D",
"{ 	c #2B5987",
"] 	c #489C3C",
"^ 	c #B8BABC",
"/ 	c #7A8388",
"( 	c #657C8D",
"_ 	c #7799A1",
": 	c #79A3A4",
"< 	c #78A3A4",
"[ 	c #9EB7C2",
"} 	c #DCE1E5",
"| 	c #D2E3D2",
"1 	c #6EA3B9",
"2 	c #61C646",
"3 	c #42859A",
"4 	c #43897D",
"5 	c #265491",
"6 	c #2E5F70",
"7 	c #3F8356",
"8 	c #3C8C2A",
"9 	c #B9C0C4",
"0 	c #88A7BD",
"a 	c #B2D8F2",
"b 	c #B6DFE7",
"c 	c #A8DED9",
"d 	c #9BD9D3",
"e 	c #8CD1D3",
"f 	c #6AB8D2",
"g 	c #5CB7AA",
"h 	c #84BFC5",
"i 	c #BCCDDA",
"j 	c #B0C8DA",
"k 	c #4684C1",
"l 	c #2F69B4",
"m 	c #2A5C9D",
"n 	c #346D73",
"o 	c #326F65",
"p 	c #2D7D0E",
"q 	c #378A22",
"r 	c #C3CFD8",
"s 	c #ACDBFB",
"t 	c #8DC2E0",
"u 	c #7AC5C4",
"v 	c #66BBB9",
"w 	c #56B5B3",
"x 	c #52B6AF",
"y 	c #57BEB3",
"z 	c #63C7BA",
"A 	c #6DCEC0",
"B 	c #5FB3DB",
"C 	c #85ACCC",
"D 	c #A6BBD2",
"E 	c #3774B7",
"F 	c #2D66A6",
"G 	c #295B95",
"H 	c #28558A",
"I 	c #348129",
"J 	c #3D9028",
"K 	c #2F665C",
"L 	c #D1CECD",
"M 	c #A6CAE8",
"N 	c #5EB3BF",
"O 	c #49ABAB",
"P 	c #39A4A4",
"Q 	c #2F9F9E",
"R 	c #299F9C",
"S 	c #30A5A0",
"T 	c #43AEB9",
"U 	c #52B2E4",
"V 	c #68C0EB",
"W 	c #69B8F4",
"X 	c #AABDCD",
"Y 	c #508FCB",
"Z 	c #3374B6",
"` 	c #2D64A4",
" .	c #2B5C92",
"..	c #3E9225",
"+.	c #2F636A",
"@.	c #23497D",
"#.	c #8B8C8D",
"$.	c #D9D7D6",
"%.	c #AFD4D3",
"&.	c #59AEAF",
"*.	c #32A0A1",
"=.	c #289A9C",
"-.	c #23969B",
";.	c #2F9CC3",
">.	c #47AAE4",
",.	c #62BBEB",
"'.	c #7CC8F4",
").	c #90D1FB",
"!.	c #AFCEE5",
"~.	c #60A2DB",
"{.	c #3982C7",
"].	c #3170B0",
"^.	c #2B5FA0",
"/.	c #367666",
"(.	c #459248",
"_.	c #47973E",
":.	c #489747",
"<.	c #394664",
"[.	c #585959",
"}.	c #C6C5C5",
"|.	c #DEE4E3",
"1.	c #A0BEBE",
"2.	c #6EAFB1",
"3.	c #68B6D9",
"4.	c #72C1EE",
"5.	c #86CFF1",
"6.	c #9AD9F5",
"7.	c #B0E0F5",
"8.	c #CEE7F3",
"9.	c #D5DADF",
"0.	c #54A9ED",
"a.	c #3D8ED4",
"b.	c #3579BA",
"c.	c #2E68A5",
"d.	c #2C5F8D",
"e.	c #459831",
"f.	c #43A01F",
"g.	c #4AA726",
"h.	c #1C3C7A",
"i.	c #395A6B",
"j.	c #636961",
"k.	c #A4A4A4",
"l.	c #DFDFDE",
"m.	c #E0DEDC",
"n.	c #D6D3D1",
"o.	c #CFD0D2",
"p.	c #D0D5D7",
"q.	c #DADCDD",
"r.	c #E8E7E6",
"s.	c #E5E5E4",
"t.	c #9FC8D9",
"u.	c #4DB1F8",
"v.	c #4196DD",
"w.	c #3880C1",
"x.	c #306DAB",
"y.	c #30688A",
"z.	c #3B911D",
"A.	c #359216",
"B.	c #3D9A1E",
"C.	c #1D3C7A",
"D.	c #2F6076",
"E.	c #4DA236",
"F.	c #5B7693",
"G.	c #8C99A4",
"H.	c #C4C4C4",
"I.	c #DFDFDF",
"J.	c #F1F0F0",
"K.	c #F0EFEF",
"L.	c #EAEAEA",
"M.	c #A8A8A8",
"N.	c #C8C9C9",
"O.	c #80B9CF",
"P.	c #4AB2FA",
"Q.	c #4299DF",
"R.	c #3883C3",
"S.	c #316EAE",
"T.	c #37786E",
"U.	c #31860D",
"V.	c #2B840E",
"W.	c #389819",
"X.	c #1F3F78",
"Y.	c #234784",
"Z.	c #44954E",
"`.	c #499F5A",
" +	c #4183BA",
".+	c #60B686",
"++	c #7AC3E6",
"@+	c #96DEF9",
"#+	c #97EBF8",
"$+	c #7EF2FA",
"%+	c #68E2ED",
"&+	c #62696A",
"*+	c #666767",
"=+	c #768793",
"-+	c #4292D0",
";+	c #3882C2",
">+	c #306EAB",
",+	c #33717E",
"'+	c #378712",
")+	c #338B15",
"!+	c #419F1E",
"~+	c #499E32",
"{+	c #1E4078",
"]+	c #214681",
"^+	c #28548C",
"/+	c #4CA349",
"(+	c #408B98",
"_+	c #3B88DB",
":+	c #52B3BF",
"<+	c #53C0F4",
"[+	c #57CFFF",
"}+	c #59D9FF",
"|+	c #57D8FF",
"1+	c #57B7DE",
"2+	c #535658",
"3+	c #5D5D5D",
"4+	c #7F8182",
"5+	c #4A7CA7",
"6+	c #2F6CA5",
"7+	c #316A8A",
"8+	c #408A1E",
"9+	c #469E1F",
"0+	c #4DA32F",
"a+	c #1E3F77",
"b+	c #21447F",
"c+	c #234C89",
"d+	c #316988",
"e+	c #4A9975",
"f+	c #3C86B6",
"g+	c #439AC9",
"h+	c #49A8EA",
"i+	c #4DB5FD",
"j+	c #4FBDFF",
"k+	c #4DBDFE",
"l+	c #4BB5FA",
"m+	c #559ACB",
"n+	c #616466",
"o+	c #525252",
"p+	c #737474",
"q+	c #617A93",
"r+	c #2D6094",
"s+	c #3C7C60",
"t+	c #499250",
"u+	c #376C84",
"v+	c #214780",
"w+	c #25528C",
"x+	c #2E6791",
"y+	c #4AA057",
"z+	c #50B432",
"A+	c #4CAF38",
"B+	c #4BAB5D",
"C+	c #449FDC",
"D+	c #429FE7",
"E+	c #409BDF",
"F+	c #3F95D8",
"G+	c #4E8ABA",
"H+	c #767676",
"I+	c #4E4E4E",
"J+	c #696969",
"K+	c #7F868F",
"L+	c #3B6496",
"M+	c #2A5996",
"N+	c #254C91",
"O+	c #1C3C72",
"P+	c #1F4178",
"Q+	c #224880",
"R+	c #26548E",
"S+	c #499F31",
"T+	c #48A124",
"U+	c #489D28",
"V+	c #4A9A2C",
"W+	c #579F49",
"X+	c #64A496",
"Y+	c #639DCD",
"Z+	c #3C7FB6",
"`+	c #3378B3",
" @	c #4B7AA6",
".@	c #757779",
"+@	c #606060",
"@@	c #88898A",
"#@	c #476492",
"$@	c #224683",
"%@	c #1C3C70",
"&@	c #1E417A",
"*@	c #1F437E",
"=@	c #2D5E73",
"-@	c #4AA120",
";@	c #4E9933",
">@	c #579840",
",@	c #5E994A",
"'@	c #609A4D",
")@	c #609E46",
"!@	c #508A7D",
"~@	c #32708C",
"{@	c #317199",
"]@	c #2C65A1",
"^@	c #50759F",
"/@	c #7B7D7E",
"(@	c #4F4F4F",
"_@	c #848484",
":@	c #888D95",
"<@	c #1E3F78",
"[@	c #214580",
"}@	c #224A87",
"|@	c #3D8847",
"1@	c #3B9416",
"2@	c #2E8112",
"3@	c #25750C",
"4@	c #216F09",
"5@	c #27790C",
"6@	c #2F7F14",
"7@	c #358521",
"8@	c #3C8B22",
"9@	c #366F6B",
"0@	c #275693",
"a@	c #486994",
"b@	c #505050",
"c@	c #7E7E7E",
"d@	c #9F9F9F",
"e@	c #1F407A",
"f@	c #275280",
"g@	c #3D922B",
"h@	c #297B0E",
"i@	c #23720A",
"j@	c #28790D",
"k@	c #308413",
"l@	c #3B9417",
"m@	c #459448",
"n@	c #255293",
"o@	c #224980",
"p@	c #20447B",
"q@	c #425980",
"r@	c #777879",
"s@	c #8B8B8B",
"t@	c #1F417C",
"u@	c #224785",
"v@	c #2C5E7F",
"w@	c #3D962D",
"x@	c #369314",
"y@	c #2E8512",
"z@	c #2F8412",
"A@	c #399217",
"B@	c #45A11E",
"C@	c #356F71",
"D@	c #244E8D",
"E@	c #234A87",
"F@	c #214581",
"G@	c #1A386C",
"H@	c #575D67",
"I@	c #656565",
"J@	c #676767",
"K@	c #1E3D74",
"L@	c #21438D",
"M@	c #3F913F",
"N@	c #3C9919",
"O@	c #3A9418",
"P@	c #3D9816",
"Q@	c #397E4C",
"R@	c #28537E",
"S@	c #244A83",
"T@	c #224582",
"U@	c #21437F",
"V@	c #183360",
"W@	c #367250",
"X@	c #439928",
"Y@	c #40912F",
"Z@	c #2E5E6C",
"`@	c #1E3E80",
" #	c #20417B",
".#	c #1F4078",
"+#	c #1A3769",
"                                                ",
"                  . + @ # $ %                   ",
"        & * = - ; > , ' ) ! ~ { ]               ",
"    ^ / ( _ : < [ } | 1 2 3 4 5 6 7 8           ",
"  9 0 a b c d e f g h i j k l m n o p q         ",
"  r s t u v w x y z A B C D E F G H I J K       ",
"  L M N O P Q R S T U V W X Y Z `  ...+.@.      ",
"  #.$.%.&.*.=.-.;.>.,.'.).!.~.{.].^./.(._.:.    ",
"  <.[.}.|.1.2.3.4.5.6.7.8.9.0.a.b.c.d.e.f.g.    ",
"  h.i.j.k.l.m.n.o.p.q.r.s.t.u.v.w.x.y.z.A.B.    ",
"  C.D.E.F.G.H.I.J.K.L.M.N.O.P.Q.R.S.T.U.V.W.    ",
"  X.Y.Z.`. +.+++@+#+$+%+&+*+=+-+;+>+,+'+)+!+~+  ",
"  {+]+^+/+(+_+:+<+[+}+|+1+2+3+4+5+6+7+8+9+0+    ",
"  a+b+c+d+e+f+g+h+i+j+k+l+m+n+o+p+q+r+s+t+u+    ",
"    {+v+w+x+y+z+A+B+C+D+E+F+G+H+I+J+K+L+M+N+    ",
"    O+P+Q+R+S+T+U+V+W+X+Y+Z+`+ @.@I++@@@#@$@    ",
"    %@&@*@=@-@;@>@,@'@)@!@~@{@]@^@/@(@3+_@:@    ",
"      <@[@}@|@1@2@3@4@5@6@7@8@9@0@a@_@b@3+c@d@  ",
"        e@[@f@g@)+h@i@j@k@l@m@n@o@p@q@r@(@+@s@  ",
"          t@u@v@w@x@y@z@A@B@C@D@E@F@G@H@I@I+J@  ",
"            K@L@M@N@O@P@Q@R@S@T@U@V@            ",
"                W@X@Y@Z@`@ #.#+#                ",
"                                                ",
"                                                "};
