/* XPM */
static const char * forceOffIcon[] = {
"32 32 4 1",
" 	c None",
".	c #FFFFFF",
"+	c #777777",
"@	c #BBBBBB",
"                                ",
"                                ",
"                 ......         ",
"                ..++++.         ",
"               ..+@@@+.         ",
"              ..+@@@@+.         ",
"             ..+@@@@+..         ",
"            ..+@@@@+..          ",
"           ..+@@@@+..           ",
"          ..+@@@@+......        ",
"         ..+@@@@+++++++.        ",
"        ..+@@@@@@@@@@@+.        ",
"        .+@@@@@@@@@@@@+.        ",
"        .+@@@@@@@@@@@+..        ",
"        ..++++@@@@@@+..         ",
"         ....+@@@@@+.....       ",
"          ..+@@@@@@+++++.       ",
"         ..+@@@@@@@@@@@+.       ",
"         .+@@@@@@@@@@@@+.       ",
"         .+@@@@@@@@@@@+..       ",
"         .++++++@@@@@+..        ",
"         ......+@@@@+..         ",
"             ..+@@@+..          ",
"            ..+@@@+..           ",
"           ..+@@@+..            ",
"           .+@@@+..             ",
"           .+@@+..              ",
"           .+++..               ",
"           .....                ",
"                                ",
"                                ",
"                                "};
