/* XPM */
static const char *view_fullscreen[] = {
/* columns rows colors chars-per-pixel */
"32 32 178 2",
"   c #204A87",
".  c #214A87",
"X  c #224B87",
"o  c #254E89",
"O  c #28508B",
"+  c #28528C",
"@  c #29528C",
"#  c #2B538D",
"$  c #2B548D",
"%  c #2C548D",
"&  c #2D558E",
"*  c #2E558E",
"=  c #2F568E",
"-  c #30578F",
";  c #345A91",
":  c #375D93",
">  c #395F94",
",  c #44689A",
"<  c #46699B",
"1  c #486A9C",
"2  c #496B9C",
"3  c #4F709F",
"4  c #4F719F",
"5  c #5071A0",
"6  c #5C7CA6",
"7  c #5E7DA7",
"8  c #5F7EA8",
"9  c #607EA8",
"0  c #617FA9",
"q  c #6280AA",
"w  c #6380AA",
"e  c #6481AB",
"r  c #6483AB",
"t  c #6784AC",
"y  c #6885AC",
"u  c #6A87AD",
"i  c #6B87AE",
"p  c #6D8AB0",
"a  c #6E8AB0",
"s  c #708BB1",
"d  c #758FB3",
"f  c #7691B4",
"g  c #7893B5",
"h  c #7B94B7",
"j  c #7C95B7",
"k  c #7D95B8",
"l  c #7C97B8",
"z  c #7E96B8",
"x  c #7F97B8",
"c  c #888A85",
"v  c #8A8C87",
"b  c #8A8C88",
"n  c #8B8D89",
"m  c #8C8E8A",
"M  c #8098B8",
"N  c #839CBB",
"B  c #889FBD",
"V  c #8FA5C1",
"C  c #91A7C2",
"Z  c #91A8C2",
"A  c #93A8C3",
"S  c #94A8C3",
"D  c #94A9C3",
"F  c #95A9C4",
"G  c #96A9C4",
"H  c #95ABC5",
"J  c #96AAC4",
"K  c #97AAC4",
"L  c #97AAC5",
"P  c #98ABC5",
"I  c #9BAEC8",
"U  c #A9BACE",
"Y  c #AABCCF",
"T  c #AABDD0",
"R  c #ABBDD0",
"E  c #ADBED0",
"W  c #ACBED1",
"Q  c #ADBFD1",
"!  c #AFBED1",
"~  c #AFBFD2",
"^  c #B0BFD2",
"/  c #B1BFD2",
"(  c #B1C0D3",
")  c #B2C2D3",
"_  c #B4C5D5",
"`  c #B6C5D5",
"'  c #B7C7D6",
"]  c #B8C8D7",
"[  c #BCC7D8",
"{  c #B9C9D8",
"}  c #BBC8D8",
"|  c #BBCBD9",
" . c #BCCAD8",
".. c #BECAD9",
"X. c #BDCDDA",
"o. c #BFCDDA",
"O. c #C0CBDA",
"+. c #C0CCDA",
"@. c #C0CDDA",
"#. c #C0CEDB",
"$. c #C2CDDC",
"%. c #C2CEDC",
"&. c #C5CFDD",
"*. c #C2D0DC",
"=. c #C5D0DD",
"-. c #C4D1DD",
";. c #C6D3DE",
":. c #C9D3DE",
">. c #C9D3DF",
",. c #CAD2DF",
"<. c #C9D4DF",
"1. c #CAD4E0",
"2. c #CBD4E0",
"3. c #CBD5E0",
"4. c #CCD5E0",
"5. c #CDD5E0",
"6. c #CED6E1",
"7. c #CDD8E1",
"8. c #CFD9E2",
"9. c #DBE4E9",
"0. c #DDE5EA",
"q. c #DDE6EA",
"w. c #DFE6EB",
"e. c #DFE7EB",
"r. c #E0E7EB",
"t. c #E2EAED",
"y. c #E3EBED",
"u. c #E3E9EE",
"i. c #E4EAED",
"p. c #E5EAED",
"a. c #E4EAEE",
"s. c #E6EAEE",
"d. c #E7EBEF",
"f. c #E4ECEE",
"g. c #E6EDEF",
"h. c #E8ECEF",
"j. c #E9EEF0",
"k. c #E8EFF0",
"l. c #EAEFF1",
"z. c #E8F0F1",
"x. c #E9F1F1",
"c. c #EAF1F1",
"v. c #EBF0F2",
"b. c #EBF1F2",
"n. c #EBF2F2",
"m. c #EFF2F1",
"M. c #EDF0F2",
"N. c #EDF1F3",
"B. c #EEF1F2",
"V. c #EFF1F3",
"C. c #ECF2F2",
"Z. c #EDF2F3",
"A. c #EDF3F3",
"S. c #EEF3F3",
"D. c #EFF3F4",
"F. c #EFF4F4",
"G. c #F1F2F4",
"H. c #F0F4F4",
"J. c #F1F4F4",
"K. c #F1F5F5",
"L. c #F2F4F5",
"P. c #F2F5F5",
"I. c #F3F5F5",
"U. c #F3F6F6",
"Y. c #F4F4F4",
"T. c #F4F6F6",
"R. c #F5F6F6",
"E. c #F6F7F7",
"W. c #F7F7F7",
"Q. c #F6F7F9",
"!. c #F9F9FB",
"~. c #FAFBFB",
"^. c #FAFCFC",
"/. c #FBFCFC",
"(. c #FCFCFC",
"). c #FCFDFD",
"_. c #FDFDFD",
"`. c None",
/* pixels */
"`.`.`.`.`.`.`.`.`.`.`.`.`.`.`.`.`.`.`.`.`.`.`.`.`.`.`.`.`.`.`.`.",
"`.`.`.m c c c c c c c c c c c c c c c c c c c c c c c c c m `.`.",
"`.`.m m.~.~.~.~.^.!.^.!.^.^.~.~.~.~.~.~.^.~.^.^.~.~.~.~.~.G.m `.",
"`.`.c ^.$ $ $ $ $ $ $ ; X.c.c.c.x.c.c.c.X.= o o o o o o o ^.c `.",
"`.`.c ^.            O _ x.x.x.c.x.x.x.x.x.| O             ^.c `.",
"`.`.c ^.            ( x.x.x.x.c.x.x.x.x.x.x.)             ^.c `.",
"`.`.c ^.            r t.c.c.c.c.c.c.c.c.c.t.u +           ^.c `.",
"`.`.c ^.          : 5 B g.c.c.c.c.c.c.c.g.Z 6 , $         ^.c `.",
"`.`.c ^.      X > 5 t l T x.n.n.n.n.c.c.] C f 8 < =       (.c `.",
"`.`.c (.  O T 8 5 t x H T 3.n.n.A.c.A.e.%.U C g 8 p ` +   ^.c `.",
"`.`.c ^.O ' m.t.N x H Y -.q.m.c.m.n.c.A.q.;.T C A t.A.X.+ (.c `.",
"`.`.c (.{ A.A.A.g.U ( <.q.A.A.F.A.A.A.A.m.q.;.| k.m.F.A.#.^.c `.",
"`.`.c ^.m.F.A.G.A.c.8.e.A.A.A.G.A.A.A.G.H.m.a.m.G.A.A.F.A.(.c `.",
"`.`.c (.A.A.A.A.A.m.m.A.A.A.A.A.A.A.A.F.A.A.A.A.A.A.A.m.H.^.c `.",
"`.`.c ^.H.F.F.F.F.F.F.F.H.H.H.F.F.F.F.F.F.F.F.F.F.F.F.F.H.^.c `.",
"`.`.c (.H.H.H.H.H.H.H.H.H.H.H.H.H.H.H.H.H.H.H.H.H.H.H.H.H.(.c `.",
"`.`.v (.H.H.H.G.H.H.H.I.H.H.H.H.H.H.H.I.I.H.H.H.I.H.I.H.H.(.b `.",
"`.`.c (.H.U.H.U.I.I.H.H.H.H.Q.H.H.H.H.H.H.H.I.H.I.H.H.H.I.(.c `.",
"`.`.c (.Q.H.I.H.I.H.k.I.I.I.H.I.H.I.I.I.H.I.j.m.I.I.H.I.H.(.c `.",
"`.`.c (.>.I.I.I.G.%.5.a.I.I.I.I.Q.I.I.I.I.a.2.O.A.I.I.I.1.(.c `.",
"`.`.c (.% >.H.l.I P ) 3.a.I.I.I.H.!.E.I.a.3./ P P l.H.1.+ (.c `.",
"`.`.v (.  % &.d e k H / 2.j.Q.I.E.H.I.h.>.~ H k 0 s | +   ^.c `.",
"`.`.c (.      - 2 0 k H ..H.W.I.I.E.I.I.O.G g 0 2 *     X (.c `.",
"`.`.v (.        = 2 0 S G.W.I.I.E.I.E.I.G.H 0 < &         (.c `.",
"`.`.c (.          + i m.Q.I.W.Q.Q.W.W.I.I.G.p %           _.c `.",
"`.`.n (.            O.W.W.W.W.W.W.W.W.W.W.W.[             _.c `.",
"`.`.c (.            = 5.W.W.W.W.W.W.W.W.W.&.$             (.c `.",
"`.`.c (.              = 5.W.W.W.W.W.W.W.2.- o o o o o o o (.c `.",
"`.`.m H.!.Q.Q.Q.Q.Q.Q.Q.~.(.(.(.(.(.(.(.(.(.(.(.(.(.(.(.(.I.m `.",
"`.`.`.n c c c c c c c c c c v c c c c n c c n c v c c c b n `.`.",
"`.`.`.`.`.`.`.`.`.`.`.`.`.`.`.`.`.`.`.`.`.`.`.`.`.`.`.`.`.`.`.`.",
"`.`.`.`.`.`.`.`.`.`.`.`.`.`.`.`.`.`.`.`.`.`.`.`.`.`.`.`.`.`.`.`."
};
