/* XPM */
static const char *global_lighting[] = {
/* columns rows colors chars-per-pixel */
"32 32 130 2",
"   c #FCAF3E",
".  c #FCB23F",
"X  c #9B927C",
"o  c #B39B6E",
"O  c #A89471",
"+  c #A0937C",
"@  c #AEA678",
"#  c #B2A979",
"$  c #C99F5E",
"%  c #D1A259",
"&  c #FCB443",
"*  c #FAB64A",
"=  c #FCBB4C",
"-  c #E0A550",
";  c #E3AC5B",
":  c #FCB755",
">  c #FCBD51",
",  c #FCBC5F",
"<  c #C8A769",
"1  c #CDBD67",
"2  c #DAB477",
"3  c #E0B067",
"4  c #F2BD67",
"5  c #FEBF61",
"6  c #FED54C",
"7  c #FEDB4D",
"8  c #FCC756",
"9  c #FCC35D",
"0  c #FDCB5A",
"q  c #FCDF58",
"w  c #FEE14F",
"e  c #FEE153",
"r  c #FEE15C",
"t  c #D6C262",
"y  c #DCC46B",
"u  c #FCC267",
"i  c #FEC069",
"p  c #FFCB69",
"a  c #F5DA60",
"s  c #FEDD64",
"d  c #FDD36E",
"f  c #FEC675",
"g  c #FDCC74",
"h  c #FCCB7C",
"j  c #FED473",
"k  c #FDD67A",
"l  c #FEE264",
"z  c #FEE46B",
"x  c #FFE574",
"c  c #FEE975",
"v  c #FFE67B",
"b  c #FEE879",
"n  c #898B86",
"m  c #8C8E89",
"M  c #939385",
"N  c #9B9781",
"B  c #9C9983",
"V  c #979995",
"C  c #9B9A92",
"Z  c #9A9C98",
"A  c #9FA19D",
"S  c #A1A197",
"D  c #A6A7A4",
"F  c #A8A8A0",
"G  c #ACADA9",
"H  c #B4B5B2",
"J  c #BABBB8",
"K  c #BFC0BD",
"L  c #DAC198",
"P  c #F5C781",
"I  c #FCCE82",
"U  c #FCCE8A",
"Y  c #FCD088",
"T  c #E8C693",
"R  c #ECCE9D",
"E  c #F2CD93",
"W  c #FDD294",
"Q  c #F7D399",
"!  c #F9D29A",
"~  c #FFDA9F",
"^  c #FEE583",
"/  c #FEEB84",
"(  c #FEEC8D",
")  c #FEEC9C",
"_  c #FEF090",
"`  c #FFF19F",
"'  c #C5C5BF",
"]  c #EFD6A6",
"[  c #F6D7A0",
"{  c #FEDAA0",
"}  c #F5DBB6",
"|  c #FADEB2",
" . c #FEEEA5",
".. c #FEE2AD",
"X. c #FFF1A1",
"o. c #FFF3AD",
"O. c #FFF3B2",
"+. c #FFF6BB",
"@. c #C4C5C2",
"#. c #C7C8C5",
"$. c #C9CAC7",
"%. c #CCCDCB",
"&. c #CFD0CD",
"*. c #D0D1CD",
"=. c #D5D5D3",
"-. c #D7D8D6",
";. c #D8D9D6",
":. c #DBDCDA",
">. c #E0D4C0",
",. c #E1D9CB",
"<. c #EADECA",
"1. c #DFE0DE",
"2. c #F4E5CF",
"3. c #FEF6C6",
"4. c #FEF6C9",
"5. c #E0E0DE",
"6. c #F3EADD",
"7. c #F6F4DD",
"8. c #FEF5D8",
"9. c #FEFBD8",
"0. c #E4E5E3",
"q. c #EBE7E1",
"w. c #EAE9E6",
"e. c #EBEBEA",
"r. c #EFF0EF",
"t. c #F0F0EF",
"y. c #FFF7EC",
"u. c #F4F4F4",
"i. c #FDFDFD",
"p. c None",
/* pixels */
"p.p.p.p.p.p.p.p.p.p.p.p.p.p.p.p.p.p.p.p.p.p.p.p.p.p.p.p.p.p.p.p.",
"p.p.p.p.p.p.p.p.p.p.p.p.p.p.p.  p.p.p.p.p.p.p.p.p.p.p.p.p.p.p.p.",
"p.p.p.p.p.p.p.p.p.p.p.p.p.p.p.h p.p.p.p.p.p.p.p.p.p.p.p.p.p.p.p.",
"p.p.p.p.p.p.p.p.p.p.p.p.p.p.* i.* p.p.p.p.p.p.p.p.p.p.p.p.p.p.p.",
"p.p.p.p.p.p.p.p.p.p.p.p.p.p.h 9.g p.p.p.p.p.p.p.p.p.p.p.p.p.p.p.",
"p.p.p.p.p.  & p.p.p.p.p.p.p.i 5 , p.p.p.p.p.p.p..   p.p.p.p.p.p.",
"p.p.p.p.p.& ~ Y & p.p.p.p.p.p.p.p.p.p.p.p.p.. I { . p.p.p.p.p.p.",
"p.p.p.p.p.p.I i...: p.p.p.& & & . & p.p.p.  g 3.I p.p.p.p.p.p.p.",
"p.p.p.p.p.p.. ] 2 X o & k  .+.+.O.) d . p.p.. p . p.p.p.p.p.p.p.",
"p.p.p.p.p.p.p.3 ,.E 9 O.o./ z l r c X.X.= p.p.  p.p.p.p.p.p.p.p.",
"p.p.p.m m n n <.} 9 +.( z x x z l r e b X.= p.p.p.p.p.p.p.p.p.p.",
"p.p.m %.u.u.:.w.* o.( z b / / x l r e e x ( . p.p.p.p.p.p.p.p.p.",
"p.p.@.u.i.u.0.| j o.l z b _ ( b z r e e 7 / 0 p.p.p.p.p.p.p.p.p.",
"p.m w.u.2.E y.u ) b r l c / / b z r e e 7 s x & p.p.p.p.p.p.p.p.",
"p.X R P [ W i.* o.r r l z x c x l r e e t N n X p.  > & p.p.p.p.",
"- ; ! i.7.W u.& o.e e r l z z l r r e t S :.w.=.V % c 8.f   p.p.",
"m 6.| U Q U q.* ` r e e r r r a # M M n w.u.i.t.=.n m m + p.p.p.",
"n u.i.e.>.T ,.4 ^ l w e e e q N %.u.u.:.e.u.u.e.:.@.=.%.D m p.p.",
"m 0.w.:.#.@.%.L 0 / 7 7 e e 1 ' u.i.u.0.i.i.i.e.-.t.u.e.&.Z p.p.",
"p.V ;.w.0.5.:.;.* v l 6 7 7 @ w.u.u.w.i.i.i.u.w.1.e.w.0.=.G m p.",
"p.p.m n n n n X O * / s 6 6 X 0.e.0.u.i.i.r.0.0.0.:.:.=.$.A n p.",
"p.p.p.p.p.p.p.  p.p.* v v y F t.e.0.i.u.e.0.0.e.0.;.*.#.@.A m p.",
"p.p.p.p.p.p.& g . p.p.. 8 B u.i.i.e.u.e.0.;.0.0.;.&.#.@.J @.H m ",
"p.p.p.p.p.p.I 4.p   p.p.p.m u.i.e.;.;.:.=.%.=.-.%.@.@.@.@.@.K m ",
"p.p.p.p.p.. ~ h . p.p.p.p.m 0.w.:.#.@.%.$.@.@.$.@.@.@.@.@.@.H m ",
"p.p.p.p.p.  . p.p.p.p.p.p.$ C :.w.0.5.:.-.=.%.$.@.@.@.@.@.H m p.",
"p.p.p.p.p.p.p.p.p.p.p.p.p.p.< M n n n n n n n n n n n n n m p.p.",
"p.p.p.p.p.p.p.p.p.p.p.p.p.p.& 8.& p.p.p.p.p.p.p.p.p.p.p.p.p.p.p.",
"p.p.p.p.p.p.p.p.p.p.p.p.p.p.p.f p.p.p.p.p.p.p.p.p.p.p.p.p.p.p.p.",
"p.p.p.p.p.p.p.p.p.p.p.p.p.p.p.  p.p.p.p.p.p.p.p.p.p.p.p.p.p.p.p.",
"p.p.p.p.p.p.p.p.p.p.p.p.p.p.p.p.p.p.p.p.p.p.p.p.p.p.p.p.p.p.p.p.",
"p.p.p.p.p.p.p.p.p.p.p.p.p.p.p.p.p.p.p.p.p.p.p.p.p.p.p.p.p.p.p.p."
};
