/* XPM */
static const char * locked_medium[] = {
"24 24 149 2",
"  	c None",
". 	c #7D0000",
"+ 	c #800202",
"@ 	c #7A0000",
"# 	c #AF3434",
"$ 	c #9E2D2D",
"% 	c #7E0000",
"& 	c #540000",
"* 	c #882020",
"= 	c #D23C3C",
"- 	c #D24646",
"; 	c #840606",
"> 	c #7B0101",
", 	c #C74444",
"' 	c #CD1111",
") 	c #CF2020",
"! 	c #B83737",
"~ 	c #560000",
"{ 	c #8F2222",
"] 	c #D03434",
"^ 	c #D14D4D",
"/ 	c #D15858",
"( 	c #D34343",
"_ 	c #8A0909",
": 	c #CD1414",
"< 	c #DAC4C4",
"[ 	c #DACACA",
"} 	c #CE2323",
"| 	c #C13E3E",
"1 	c #7B0000",
"2 	c #820000",
"3 	c #9A1212",
"4 	c #D03030",
"5 	c #D46868",
"6 	c #DDDDDD",
"7 	c #D46F6F",
"8 	c #D43F3F",
"9 	c #910C0C",
"0 	c #7C0202",
"a 	c #CA4545",
"b 	c #CD1A1A",
"c 	c #DCD0D0",
"d 	c #0D0D0D",
"e 	c #212121",
"f 	c #DED5D5",
"g 	c #CF2424",
"h 	c #C94444",
"i 	c #810000",
"j 	c #9C2727",
"k 	c #CF2C2C",
"l 	c #D67E7E",
"m 	c #DEDEDE",
"n 	c #191919",
"o 	c #2E2E2E",
"p 	c #E0E0E0",
"q 	c #D88080",
"r 	c #D43939",
"s 	c #981010",
"t 	c #7E0303",
"u 	c #CB4444",
"v 	c #CE2424",
"w 	c #DEDADA",
"x 	c #252525",
"y 	c #3A3A3A",
"z 	c #E1E1E1",
"A 	c #E1DDDD",
"B 	c #CF2828",
"C 	c #CF4949",
"D 	c #7C0101",
"E 	c #800000",
"F 	c #A22A2A",
"G 	c #CE2929",
"H 	c #D79393",
"I 	c #DFDFDF",
"J 	c #323232",
"K 	c #484848",
"L 	c #E2E2E2",
"M 	c #E4E4E4",
"N 	c #DB9292",
"O 	c #D33333",
"P 	c #9F1414",
"Q 	c #580000",
"R 	c #800404",
"S 	c #CC4343",
"T 	c #CF3333",
"U 	c #3F3F3F",
"V 	c #555555",
"W 	c #E5E5E5",
"X 	c #E5E4E4",
"Y 	c #D13131",
"Z 	c #D44C4C",
"` 	c #7F0000",
" .	c #A72D2D",
"..	c #CD2525",
"+.	c #DAA9A9",
"@.	c #D7D7D7",
"#.	c #E6E6E6",
"$.	c #E7E7E7",
"%.	c #E0A4A4",
"&.	c #D32D2D",
"*.	c #A93030",
"=.	c #810505",
"-.	c #CD4242",
";.	c #D04646",
">.	c #1A1A1A",
",.	c #313131",
"'.	c #E9E9E9",
").	c #EAEAEA",
"!.	c #D33B3B",
"~.	c #D64C4C",
"{.	c #820505",
"].	c #AD3030",
"^.	c #CD2323",
"/.	c #DCBCBC",
"(.	c #E3E3E3",
"_.	c #EBEBEB",
":.	c #E4B6B6",
"<.	c #D22626",
"[.	c #B53838",
"}.	c #850606",
"|.	c #CD4040",
"1.	c #D24A4A",
"2.	c #E8E8E8",
"3.	c #ECECEC",
"4.	c #EEEEEE",
"5.	c #D33838",
"6.	c #D94B4B",
"7.	c #870808",
"8.	c #B12F2F",
"9.	c #CD2424",
"0.	c #CC0101",
"a.	c #CC0000",
"b.	c #D32727",
"c.	c #BA3636",
"d.	c #7E0101",
"e.	c #B23737",
"f.	c #CF4848",
"g.	c #D04949",
"h.	c #D14A4A",
"i.	c #D34B4B",
"j.	c #D54D4D",
"k.	c #D64E4E",
"l.	c #D74F4F",
"m.	c #D85050",
"n.	c #DA5252",
"o.	c #DB5151",
"p.	c #B84545",
"q.	c #9F0000",
"r.	c #7C0000",
"                                                ",
"                                                ",
"                      . +                       ",
"                    @ # $ %                     ",
"                  & * = - ;                     ",
"                  > , ' ) ! .                   ",
"                ~ { ] ^ / ( _                   ",
"                > , : < [ } | 1                 ",
"              2 3 4 5 6 6 7 8 9                 ",
"              0 a b c d e f g h @               ",
"            i j k l m n o p q r s ~             ",
"            t u v w m x y z A B C D             ",
"          E F G H I I J K L M N O P Q           ",
"          R S T I I p U V M W X Y Z t           ",
"        `  ...+.p p z @.6 W #.$.%.&.*.E         ",
"        =.-.;.p p z 6 >.,.#.$.'.).!.~.{.        ",
"      % ].^./.z z (.z J K $.'.)._.:.<.[.%       ",
"      }.|.1.z z (.M W #.2.'.)._.3.4.5.6.7.      ",
"    % 8.9.0.a.a.a.a.a.a.a.a.a.a.a.a.a.b.c.%     ",
"    d.e.|.f.g.g.h.1.i.Z Z j.k.k.l.m.n.o.p.%     ",
"      1 q.q.q.q.q.q.q.q.q.q.q.q.q.q.q.q.r.      ",
"                                                ",
"                                                ",
"                                                "};
