/* XPM */
const char * mapExplorerTool[] = {
"32 32 281 2",
"  	c None",
". 	c #EDEDED",
"+ 	c #305E76",
"@ 	c #56A8D2",
"# 	c #B1B1B1",
"$ 	c #FFFFFF",
"% 	c #FDFCFB",
"& 	c #FBF7F5",
"* 	c #FCF8F5",
"= 	c #FEFBFA",
"- 	c #FDFCFC",
"; 	c #FEFCFC",
"> 	c #FFFFFE",
", 	c #C2B3A9",
"' 	c #B08368",
") 	c #C08B6D",
"! 	c #CEAF9E",
"~ 	c #C7B9B1",
"{ 	c #CCB9AE",
"] 	c #DACEC8",
"^ 	c #F1EFEE",
"/ 	c #FEFEFE",
"( 	c #F8F9F9",
"_ 	c #B39A8B",
": 	c #9F5D35",
"< 	c #BD5617",
"[ 	c #D2611D",
"} 	c #C06128",
"| 	c #A95B2B",
"1 	c #D36A2B",
"2 	c #C6662D",
"3 	c #A96942",
"4 	c #A88976",
"5 	c #D3CAC5",
"6 	c #FCFCFC",
"7 	c #F7F3F0",
"8 	c #D6B5A1",
"9 	c #BB632E",
"0 	c #B94C09",
"a 	c #C34E07",
"b 	c #C55009",
"c 	c #BE4C07",
"d 	c #CB5208",
"e 	c #EF711A",
"f 	c #D95D0D",
"g 	c #B64908",
"h 	c #A6501D",
"i 	c #B67953",
"j 	c #F2ECE8",
"k 	c #E0D0C7",
"l 	c #B3683A",
"m 	c #E66513",
"n 	c #E76D1B",
"o 	c #D66217",
"p 	c #C95610",
"q 	c #D25B11",
"r 	c #F4701B",
"s 	c #FF953A",
"t 	c #ED7523",
"u 	c #D1560D",
"v 	c #BF4B05",
"w 	c #BE510F",
"x 	c #E0CCC0",
"y 	c #F9F9FA",
"z 	c #B2B2B2",
"A 	c #EDE8E5",
"B 	c #C29A83",
"C 	c #A64306",
"D 	c #F5741F",
"E 	c #FF8F35",
"F 	c #F7842D",
"G 	c #F0701B",
"H 	c #F26D17",
"I 	c #FD8027",
"J 	c #FFA045",
"K 	c #EE7926",
"L 	c #D0560E",
"M 	c #C04E0B",
"N 	c #CC5814",
"O 	c #BE9780",
"P 	c #EEE9E6",
"Q 	c #F9FAFB",
"R 	c #D2A488",
"S 	c #AC5018",
"T 	c #AD490D",
"U 	c #E56212",
"V 	c #FB822B",
"W 	c #FF973D",
"X 	c #FB8E36",
"Y 	c #F57621",
"Z 	c #F47E28",
"` 	c #FC933B",
" .	c #F37622",
"..	c #DC5A0E",
"+.	c #C1510D",
"@.	c #AB4A10",
"#.	c #904F29",
"$.	c #DFD1C8",
"%.	c #FBFDFE",
"&.	c #C8AFA0",
"*.	c #C26C37",
"=.	c #CF5409",
"-.	c #BD500E",
";.	c #DA5C0F",
">.	c #FA8028",
",.	c #EB731D",
"'.	c #D27538",
").	c #CA997B",
"!.	c #CC9A79",
"~.	c #CD6B2B",
"{.	c #EE7521",
"].	c #FB7820",
"^.	c #F26C18",
"/.	c #EB6F1D",
"(.	c #D3590E",
"_.	c #D2A285",
":.	c #F1ECEA",
"<.	c #FCFEFF",
"[.	c #B99B89",
"}.	c #AC5926",
"|.	c #C64F07",
"1.	c #C9540E",
"2.	c #E56414",
"3.	c #F97920",
"4.	c #DB7D3D",
"5.	c #D1A58B",
"6.	c #EDE7E4",
"7.	c #EBE1DC",
"8.	c #C99B7E",
"9.	c #E67C35",
"0.	c #FF862A",
"a.	c #FF973C",
"b.	c #FE872E",
"c.	c #E4600E",
"d.	c #BA7850",
"e.	c #DCCEC7",
"f.	c #C0A89A",
"g.	c #AE6131",
"h.	c #CC550B",
"i.	c #E46F1F",
"j.	c #F68731",
"k.	c #FB7C21",
"l.	c #D58755",
"m.	c #D8C7BE",
"n.	c #CFC1B8",
"o.	c #E18345",
"p.	c #F97F23",
"q.	c #F88F38",
"r.	c #E87423",
"s.	c #D0580F",
"t.	c #9E562B",
"u.	c #CEB9AC",
"v.	c #FBFCFD",
"w.	c #D2C4BB",
"x.	c #C47646",
"y.	c #E1600C",
"z.	c #FF8A30",
"A.	c #FF9C42",
"B.	c #FF8428",
"C.	c #D97C40",
"D.	c #D2AD97",
"E.	c #F5F3F2",
"F.	c #F3EDEA",
"G.	c #CCA791",
"H.	c #E4833E",
"I.	c #F6731A",
"J.	c #E66516",
"K.	c #CA530D",
"L.	c #C3510C",
"M.	c #954819",
"N.	c #CAB0A0",
"O.	c #EAE7E5",
"P.	c #D38F67",
"Q.	c #D9590A",
"R.	c #F67620",
"S.	c #F7701A",
"T.	c #FF7E25",
"U.	c #E76C19",
"V.	c #CC733B",
"W.	c #C69E86",
"X.	c #CCA38A",
"Y.	c #CA682B",
"Z.	c #F07B26",
"`.	c #F77A23",
" +	c #D7590F",
".+	c #BC500E",
"++	c #D95A0C",
"@+	c #B05E2B",
"#+	c #D5BCAC",
"$+	c #CDB3A4",
"%+	c #9E572D",
"&+	c #B04B0D",
"*+	c #C6540F",
"=+	c #E25F10",
"-+	c #F57E28",
";+	c #F78B35",
">+	c #F07E2C",
",+	c #F07D2C",
"'+	c #F89039",
")+	c #FF943A",
"!+	c #FA7E26",
"~+	c #DD5D10",
"{+	c #AB490F",
"]+	c #B45013",
"^+	c #D6AF98",
"/+	c #F8F6F4",
"(+	c #E3DEDC",
"_+	c #C09073",
":+	c #BE4B06",
"<+	c #BE500E",
"[+	c #D3570D",
"}+	c #F28530",
"|+	c #FF993D",
"1+	c #FD7D23",
"2+	c #F46E17",
"3+	c #F37721",
"4+	c #FB8C34",
"5+	c #FF8C32",
"6+	c #E96C19",
"7+	c #AC490E",
"8+	c #EDE5E1",
"9+	c #F9FDFF",
"0+	c #DEBCA8",
"a+	c #B84805",
"b+	c #C2500A",
"c+	c #D0560C",
"d+	c #F0812C",
"e+	c #FF9136",
"f+	c #F4721C",
"g+	c #D55C12",
"h+	c #CF5911",
"i+	c #DF6B1E",
"j+	c #EF731E",
"k+	c #E16717",
"l+	c #B26233",
"m+	c #E2DBD7",
"n+	c #FBFFFF",
"o+	c #E9D9CF",
"p+	c #B16B40",
"q+	c #B3551C",
"r+	c #BE4D09",
"s+	c #E46A18",
"t+	c #F1721C",
"u+	c #D3560B",
"v+	c #B84B09",
"w+	c #C14F0B",
"x+	c #C34D08",
"y+	c #C14E0B",
"z+	c #C36731",
"A+	c #CDA790",
"B+	c #FEFCFA",
"C+	c #F6F5F4",
"D+	c #D2C8C1",
"E+	c #A37C65",
"F+	c #A65A2D",
"G+	c #CC5E1C",
"H+	c #CF601C",
"I+	c #AF531C",
"J+	c #BC571B",
"K+	c #D75F16",
"L+	c #BA5011",
"M+	c #9B572F",
"N+	c #B19687",
"O+	c #FDFDFC",
"P+	c #FBFAF9",
"Q+	c #EFEAE6",
"R+	c #DBC7BB",
"S+	c #CCB4A5",
"T+	c #CAB6AA",
"U+	c #CDAB96",
"V+	c #BE8461",
"W+	c #AA7E63",
"X+	c #CABAAF",
"Y+	c #FEFFFF",
"Z+	c #FEFDFC",
"`+	c #FAF8F7",
" @	c #FAF9F8",
".@	c #FBF6F4",
"+@	c #F7EDE8",
"@@	c #F3ECE8",
"#@	c #000000",
"                                                                ",
"                                                                ",
"    . + + @ @ @ @ @ @ @ @ @ @ @ @ @ @ @ @ @ @ @ @ @ @ + + .     ",
"    . + + @ @ @ @ @ @ @ @ @ @ @ @ @ @ @ @ @ @ @ @ + + @ @ .     ",
"    . # $ $ $ $ $ $ % & * = - ; > $ $ $ $ $ $ $ $ $ $ $ # .     ",
"    . # $ $ $ $ $ $ , ' ) ! ~ { ] ^ $ $ $ $ $ $ $ $ $ $ # .     ",
"    . # $ $ / $ ( _ : < [ } | 1 2 3 4 5 6 $ $ $ $ $ $ $ # .     ",
"    . # $ $ $ 7 8 9 0 a b c d e f g h i j $ $ $ $ $ $ $ # .     ",
"    . # $ $ $ k l m n o p q r s t u v w x y $ $ $ $ $ $ # .     ",
"    . z $ $ A B C D E F G H I J K L M N O P $ $ $ $ $ $ # .     ",
"    . z $ Q R S T U V W X Y Z `  ...+.@.#.$.$ $ $ $ $ $ # .     ",
"    . z %.&.*.=.-.;.>.,.'.).!.~.{.].^./.(._.:.$ $ $ $ $ # .     ",
"    . z <.[.}.|.1.2.3.4.5.6.7.8.9.0.a.b.c.d.e.y $ $ $ $ # .     ",
"    . z <.f.g.h.i.j.k.l.m.$ $ n.o.p.q.r.s.t.u.y $ $ $ $ # .     ",
"    . z v.w.x.y.z.A.B.C.D.E.F.G.H.I.J.K.L.M.N.y $ $ $ $ # .     ",
"    . # $ O.P.Q.R.S.T.U.V.W.X.Y.Z.`. +.+++@+#+$ $ $ $ $ # .     ",
"    . # $ $ $+%+&+*+=+-+;+>+,+'+)+!+~+{+]+^+/+$ $ $ $ $ # .     ",
"    . # $ $ (+_+:+<+[+}+|+1+2+3+4+5+6+7+O 8+$ $ $ $ $ $ # .     ",
"    . # $ $ 9+0+a+b+c+d+e+f+g+h+i+j+k+l+m+n+$ $ $ $ $ $ # .     ",
"    . # $ $ $ o+p+q+r+s+t+u+v+w+x+y+z+A+B+$ $ $ $ $ $ $ # .     ",
"    . # $ $ $ C+D+E+F+G+H+I+J+K+L+M+N+<.$ $ $ $ $ $ $ $ # .     ",
"    . # $ $ $ / O+P+Q+R+S+T+U+V+W+X+$ Y+$ $ $ $ $ $ $ $ # .     ",
"    . # $ $ $ $ $ $ $ Z+`+ @.@+@@@P+$ $ $ $ $ $ $ $ $ $ # .     ",
"    . # # # # # # # # # # # # # # # # # # # # # # # # # # .     ",
"    . # # #@#@#@#@#@#@#@# $ $ # # # #@#@#@#@#@#@# $ $ # # .     ",
"    . # # # # # # # # # # # # # # # # # # # # # # # # # # .     ",
"    . # # # # # # # # # # # # # # # # # # # # # # # # # # .     ",
"    . # # #@#@#@#@#@#@#@# $ $ # # # #@# #@#@#@#@# $ $ # # .     ",
"    . # # # # # # # # # # # # # # # # # # # # # # # # # # .     ",
"    . . . . . . . . . . . . . . . . . . . . . . . . . . . .     ",
"                                                                ",
"                                                                "};
