/* XPM */
static const char * marker[] = {
"24 24 5 1",
" 	c None",
".	c #A0A0A0",
"+	c #80DC5C",
"@	c #68E254",
"#	c #FFFFFF",
"                        ",
"           ..           ",
"           ..           ",
"           ..           ",
"           ..           ",
"           ..           ",
"                        ",
"           ++           ",
"         @@@@@@         ",
"        @@#@@@@@        ",
"        @@@@@@@@        ",
" ..... +@@@@@@@@+ ..... ",
" ..... +@@@@@@@@+ ..... ",
"        @@@@@@@@        ",
"        @@@@@@@@        ",
"         @@@@@@         ",
"           ++           ",
"                        ",
"           ..           ",
"           ..           ",
"           ..           ",
"           ..           ",
"           ..           ",
"                        "};
