/* XPM */
static const char * mode_tube[] = {
"32 32 3 1",
" 	c None",
".	c #FFFFFF",
"+	c #FF6000",
"                                ",
"                                ",
"                                ",
"                                ",
"                                ",
"                                ",
"                                ",
"                                ",
"                                ",
"     ....               ....    ",
"   ...++...           ...++...  ",
"  ..++++++..         ..++++++.. ",
" ..++++++++..       ..++++++++..",
" .+++....+++..     ..+++....+++.",
" ..+..  ..+++.     .+++..  ..+..",
"  ...    .+++..   ..+++.    ... ",
"         ..+++.. ..+++..        ",
"          ..+++...+++..         ",
"           ..+++++++..          ",
"            ..+++++..           ",
"             ..+++..            ",
"              .....             ",
"                                ",
"                                ",
"                                ",
"                                ",
"                                ",
"                                ",
"                                ",
"                                ",
"                                ",
"                                "};
