/* XPM */
static const char * mode_licorice[] = {
"32 32 4 1",
" 	c None",
".	c #FFFFFF",
"+	c #FFD9C2",
"@	c #FF6000",
"                                ",
"                                ",
"                                ",
"                                ",
"                                ",
"                                ",
"                                ",
"                                ",
"                                ",
"    ...                   ...   ",
"   ..+..                 ..+..  ",
"  ..+++..               ..+++.. ",
"  .+++++..             ..+++++. ",
"  ..+++++..           ..+++++.. ",
"   ..+++++..         ..+++++..  ",
"    ..+++++..       ..+++++..   ",
"     ..+++++..     ..+++++..    ",
"      ..+++@@..   ..@@+++..     ",
"       ..+@@@@.. ..@@@@+..      ",
"        ..@@@@@...@@@@@..       ",
"         ..@@@@@.@@@@@..        ",
"          ..@@@@@@@@@..         ",
"           ..@@@@@@@..          ",
"            ..@@@@@..           ",
"             ...@...            ",
"               ...              ",
"                                ",
"                                ",
"                                ",
"                                ",
"                                ",
"                                "};
