/* XPM */
static const char * mode_points[] = {
"32 32 4 1",
" 	c None",
".	c #FFFFFF",
"+	c #FFD9C2",
"@	c #FF6000",
"                                ",
"                                ",
"                                ",
"                                ",
"                                ",
"                                ",
"                                ",
"                                ",
"     .....            .....     ",
"    ..+++..          ..+++..    ",
"    .+++++.          .+++++.    ",
"    .+++++.          .+++++.    ",
"    .+++++.          .+++++.    ",
"    ..+++..          ..+++..    ",
"     .....            .....     ",
"                                ",
"                                ",
"                                ",
"              .....             ",
"             ..@@@..            ",
"             .@@@@@.            ",
"             .@@@@@.            ",
"             .@@@@@.            ",
"             ..@@@..            ",
"              .....             ",
"                                ",
"                                ",
"                                ",
"                                ",
"                                ",
"                                ",
"                                "};
