/* XPM */
static const char * mode_cartoon[] = {
"32 32 4 1",
" 	c None",
".	c #FFFFFF",
"+	c #FF6000",
"@	c #FE5F00",
"                                ",
"                                ",
"                                ",
"                                ",
"                  ....          ",
"                  .++..         ",
"                  .+@+..        ",
"      .............@@@+..       ",
"     ..@@@+@@+@@@@@@@@@@..      ",
"    ..@@@@@@@@@@@@@@@@@@@.      ",
"   ..+@@@@@@@@@@@@@@@@@@+...    ",
"   .@+.@@@@@@@@@@@@@@@@+..@..   ",
"   .++...@@@++++@+++@@+...@@.   ",
"  ..+.. ...........+@+.. .+@.   ",
"  .++.            .@+..  ..@.   ",
"  .+..            ....    .@..  ",
"  .@..    ...             .++.  ",
"  .@+.   ..@.             .@..  ",
"  ..+.  ..@@.             .@.   ",
"   .+....@@@...............+.   ",
"   .@+..@@@@+@@@@@@@@@++@@+@.   ",
"   ....@@@@@@@@@@@@@@@@@@@+..   ",
"     .+@@@@@@@@@@@@@@@@@@@@.    ",
"     ..+@@@@@@@@@@@@@@@@@@..    ",
"      ..+@@@@+@+@@+@+++@...     ",
"       ..+@@.............       ",
"        ..+@.                   ",
"         ....                   ",
"                                ",
"                                ",
"                                ",
"                                "};
