/* XPM */
static const char * mode_vdw[] = {
"33 32 4 1",
" 	c None",
".	c #FFFFFF",
"+	c #FFD9C2",
"@	c #FF6000",
"                                 ",
"                                 ",
"                                 ",
"                                 ",
"   .........         .........   ",
"  ..+++++++..       ..+++++++..  ",
" ..+++++++++..     ..+++++++++.. ",
"..+++++++++++..   ..+++++++++++..",
".+++++++++++++.   .+++++++++++++.",
".+++++++++++++.   .+++++++++++++.",
".+++++++++++++.   .+++++++++++++.",
".+++++++++++++.   .+++++++++++++.",
".+++++++++++++.   .+++++++++++++.",
".+++++++++++++.   .+++++++++++++.",
".+++++++++++++.....+++++++++++++.",
"..+++++++++++@@@@@@@+++++++++++..",
" ..+++++++++@@@@@@@@@+++++++++.. ",
"  ..+++++++@@@@@@@@@@@+++++++..  ",
"   .......@@@@@@@@@@@@@.......   ",
"         .@@@@@@@@@@@@@.         ",
"         .@@@@@@@@@@@@@.         ",
"         .@@@@@@@@@@@@@.         ",
"         .@@@@@@@@@@@@@.         ",
"         .@@@@@@@@@@@@@.         ",
"         .@@@@@@@@@@@@@.         ",
"         ..@@@@@@@@@@@..         ",
"          ..@@@@@@@@@..          ",
"           ..@@@@@@@..           ",
"            .........            ",
"                                 ",
"                                 ",
"                                 "};
