/* XPM */
static const char * mode_toon[] = {
"32 32 7 1",
" 	c None",
".	c #FFFFFF",
"+	c #BF4900",
"@	c #FF6000",
"#	c #FFAD7A",
"$	c #FFD9C2",
"%	c #FFE9DC",
"                                ",
"                                ",
"                                ",
"                                ",
"                                ",
"    .........     .........     ",
"   ..+++++++..   ..+++++++..    ",
"  ..+@@@@@@@+.. ..+@@@@@@@+..   ",
" ..+@@@@@@@@@+...+@@@@@@@@@+..  ",
" .+@@@#$$$#@@@+.+@@@#$$$#@@@+.  ",
" .+@@#$$$$$#@@+.+@@#$$$$$#@@+.  ",
" .+@@$$%.%$$@@+.+@@$$%.%$$@@+.  ",
" .+@@$$...$$@@+.+@@$$...$$@@+.  ",
" .+@@$$%.%$$@@+++@@$$%.%$$@@+.  ",
" .+@@#$$$$$##@@+@@##$$$$$#@@+.  ",
" .+@@@#$$$#$##@@@##$#$$$#@@@+.  ",
" ..+@@@@@###$#$$$#$###@@@@@+..  ",
"  ..+@@@@@@##$$$$$##@@@@@@+..   ",
"   ..++++@@#$$%.%$$#@@++++..    ",
"    ....++@@$$...$$@@++....     ",
"       ..+@@$$%.%$$@@+..        ",
"        .+@@#$$$$$#@@+.         ",
"        .+@@@#$$$#@@@+.         ",
"        ..+@@@@@@@@@+..         ",
"         ..+@@@@@@@+..          ",
"          ..+++++++..           ",
"           .........            ",
"                                ",
"                                ",
"                                ",
"                                ",
"                                "};
