/* XPM */
static const char * mol_bw_medium[] = {
"24 24 4 1",
" 	g None",
".	g #DCDCDC",
"+	g #A5A5A5",
"@	g #FFFFFF",
"                        ",
"                        ",
"                        ",
"    .....       .....   ",
"  ...+++...   ...+++... ",
"  .+++++++.   .+++++++. ",
" ..+@+++++.. ..+@+++++..",
" .+++++++++. .+++++++++.",
" .+++++++++. .+++++++++.",
" .+++++++++. .+++++++++.",
" ..+++++++.. ..+++++++..",
"  .+++++++.....+++++++. ",
"  ...++++++@@@++++++... ",
"    .....+@@@@@+.....   ",
"       ..@@@@@@@..      ",
"       .@@@@@@@@@.      ",
"       .@@@@@@@@@.      ",
"       .@@@@@@@@@.      ",
"       ..@@@@@@@..      ",
"        .@@@@@@@.       ",
"        ...@@@...       ",
"          .....         ",
"                        ",
"                        "};
