/* XPM */
static const char * mol_green_grid_medium[] = {
"24 24 6 1",
" 	c None",
".	c #9C9C9C",
"+	c #DCDCDC",
"@	c #35713C",
"#	c #FFFFFF",
"$	c #7E8B5A",
" .      .      .      . ",
"........................",
" .      .      .      . ",
" .  ++++.      .+++++ . ",
" .+++@@@.++   +.+@@@++. ",
" .+@@@@@@@+   +@@@@@@@. ",
" .+@#@@@@@++ ++@#@@@@@.+",
" .@@@@@@@@@+ +@@@@@@@@@+",
"..@@@@@@@@@+ +@@@@@@@@@+",
" .@@@@@@@@@+ +@@@@@@@@@+",
" .+@@@@@@@++ ++@@@@@@@.+",
" .+@@@@@@@+++++@@@@@@@. ",
" .+++@@@@@@###@@@@@@++. ",
" .  +++++$#####$+++++ . ",
" .     ++#######++    . ",
"........#########.......",
" .     +#########+    . ",
" .     +#########+    . ",
" .     +.#######++    . ",
" .      .#######+     . ",
" .      .++###+.+     . ",
" .      . +++++.      . ",
"........................",
" .      .      .      . "};
