/* XPM */
static const char * move_medium_locked[] = {
"24 24 99 2",
"  	c None",
". 	c #DCDCDC",
"+ 	c #000000",
"@ 	c #C8B3B3",
"# 	c #CCB8B8",
"$ 	c #0B0000",
"% 	c #9D2323",
"& 	c #8C1C1C",
"* 	c #080000",
"= 	c #570303",
"- 	c #C72A2A",
"; 	c #C62F2F",
"> 	c #4B0101",
", 	c #160000",
"' 	c #962323",
") 	c #D24646",
"! 	c #D35555",
"~ 	c #920E0E",
"{ 	c #902525",
"] 	c #D23C3C",
"^ 	c #E3BEBE",
"/ 	c #E2C1C1",
"( 	c #D34545",
"_ 	c #520000",
": 	c #150000",
"< 	c #AB2C2C",
"[ 	c #D13333",
"} 	c #363A3A",
"| 	c #4A4E4E",
"1 	c #D13B3B",
"2 	c #AA2929",
"3 	c #CBC2C2",
"4 	c #770000",
"5 	c #CA2222",
"6 	c #DED3D3",
"7 	c #4D4E4E",
"8 	c #616161",
"9 	c #E1D5D5",
"0 	c #CC2525",
"a 	c #720000",
"b 	c #2F0000",
"c 	c #AC3232",
"d 	c #D67171",
"e 	c #E0E3E3",
"f 	c #5A5A5A",
"g 	c #6F6F6F",
"h 	c #E5E8E8",
"i 	c #DA7575",
"j 	c #AE2323",
"k 	c #840F0F",
"l 	c #CD2626",
"m 	c #DCC8C8",
"n 	c #E0E0E0",
"o 	c #D5D5D5",
"p 	c #E5E5E5",
"q 	c #E3CACA",
"r 	c #D32F2F",
"s 	c #8B1111",
"t 	c #330000",
"u 	c #AB1F1F",
"v 	c #D47676",
"w 	c #E1E7E7",
"x 	c #E3E3E3",
"y 	c #3D3D3D",
"z 	c #565656",
"A 	c #E9E9E9",
"B 	c #EBF2F2",
"C 	c #D96B6B",
"D 	c #B12626",
"E 	c #D2CFCF",
"F 	c #730101",
"G 	c #D34040",
"H 	c #E1E1E1",
"I 	c #E2E2E2",
"J 	c #E4E4E4",
"K 	c #E8E8E8",
"L 	c #EBEBEB",
"M 	c #EEEEEE",
"N 	c #DA3E3E",
"O 	c #800303",
"P 	c #C3A6A6",
"Q 	c #B03333",
"R 	c #D13232",
"S 	c #D02424",
"T 	c #D12424",
"U 	c #D22525",
"V 	c #D32626",
"W 	c #D42727",
"X 	c #D52828",
"Y 	c #DC3D3D",
"Z 	c #B73E3E",
"` 	c #872B2B",
" .	c #A41515",
"..	c #A01414",
"+.	c #990000",
"@.	c #980000",
"#.	c #970000",
"$.	c #9D0000",
"%.	c #740000",
"                                                ",
"                                                ",
"                    . . .                       ",
"                  . . + . .                     ",
"                . . + + + . .                   ",
"              . . + + + + + . .                 ",
"              . + + + + + + + .                 ",
"              . . . + + + . . .                 ",
"        . . .     . + + + .     . . .           ",
"      . . + .     . + + + .     . + . .         ",
"    . . + + . . . . + + + . . @ # + + . .       ",
"  . . + + + + + + + + + + + $ % & * + + . .     ",
"  . + + + + + + + + + + + + = - ; > + + + .     ",
"  . . + + + + + + + + + + , ' ) ! ~ $ + . .     ",
"    . . + + . . . . + + + { ] ^ / ( _ . .       ",
"      . . + .     . + + : < [ } | 1 2 3         ",
"        . . .     . + + 4 5 6 7 8 9 0 a         ",
"              . . . + b c d e f g h i j         ",
"              . + + + k l m n o . p q r s       ",
"              . . + t u v w x y z A B C D       ",
"                . E F G H I J p K A L M N O     ",
"                  P Q R S S T U V W W X Y Z     ",
"                    `  ...+.@.#.#.#.@.+.$.%.    ",
"                                                "};
