/* XPM */
static const char *move_clashing_medium_white[] = {
"24 24 85 1",
" 	c None",
".	c #F7D6C2",
"+	c #E57735",
"@	c #E05E10",
"#	c #7FB086",
"$	c #69A371",
"%	c #BFD7C2",
"&	c #FEFEFE",
"*	c #F9DFD0",
"=	c #EA905A",
"-	c #E26920",
";	c #F2BB9A",
">	c #AECDB2",
",	c #629F6A",
"'	c #A2C6A7",
")	c #F7FAF7",
"!	c #FEFCFA",
"~	c #ED9F71",
"{	c #E16418",
"]	c #E78043",
"^	c #F6D3BD",
"/	c #FFFFFF",
"(	c #E8F1E9",
"_	c #5C9664",
":	c #67A26F",
"<	c #9EC3A3",
"[	c #EFF5F0",
"}	c #FDF7F3",
"|	c #F0B38E",
"1	c #E1661B",
"2	c #E16115",
"3	c #F2BB9B",
"4	c #FFFEFD",
"5	c #F6F9F6",
"6	c #B9D4BD",
"7	c #5E9966",
"8	c #91BB97",
"9	c #EEF4EF",
"0	c #FDFDFD",
"a	c #FBEBE2",
"b	c #F0B08A",
"c	c #E36C25",
"d	c #E06013",
"e	c #E78247",
"f	c #F6CEB7",
"g	c #77AB7E",
"h	c #8FBA95",
"i	c #E78245",
"j	c #E26921",
"k	c #FBE9DE",
"l	c #CDE0D0",
"m	c #7CAE83",
"n	c #5C9564",
"o	c #E78448",
"p	c #F0B18A",
"q	c #FBE8DD",
"r	c #FDF6F2",
"s	c #D0E2D2",
"t	c #E05F12",
"u	c #E06114",
"v	c #E1651A",
"w	c #B8D3BC",
"x	c #8DB993",
"y	c #639F6B",
"z	c #5F9A67",
"A	c #E2671E",
"B	c #E8884F",
"C	c #EFAC83",
"D	c #FBFCFB",
"E	c #DFEBE1",
"F	c #71A878",
"G	c #FAE6DA",
"H	c #FFFCFB",
"I	c #C8DDCB",
"J	c #EB9562",
"K	c #FFFEFE",
"L	c #F9FBF9",
"M	c #8AB790",
"N	c #E16216",
"O	c #E67C3D",
"P	c #FAE4D7",
"Q	c #9AC19F",
"R	c #5D9765",
"S	c #EA925E",
"T	c #FEFAF8",
"                        ",
"     .+@       #$%&     ",
"    *=-;       >,')     ",
"   !~{]^   /   (_:<[    ",
"  }|1234  ///  56_7890  ",
" abcdef  /////  (#77gh  ",
" ijd;k} /////// )l6m7n  ",
" opqr     ///     &s6n  ",
"          ///           ",
"     /    ///    /      ",
"    //    ///    //     ",
"   /////////////////    ",
"  ///////////////////   ",
"   /////////////////    ",
"    //    ///    //     ",
"     /    ///    /      ",
" n6s      ///     rqpo  ",
" :,m6l)   ///   }k;tuv  ",
" wxyz#( /////// feuABC  ",
" DE<Fz65 ///// 432-~GH  ",
"  &DI$_(  ///  ^]{JkK   ",
"    LMn>   /   ;NOP     ",
"     QR#       @uST     ",
"                        "};
