/* XPM */
static const char * move_igd_medium[] = {
"24 24 25 1",
" 	c None",
".	c #DCDCDC",
"+	c #000000",
"@	c #EC952D",
"#	c #DCDBDA",
"$	c #EB9834",
"%	c #EB9835",
"&	c #EA9C40",
"*	c #DCDBD9",
"=	c #020100",
"-	c #160E04",
";	c #DCDBDB",
">	c #DDD6CF",
",	c #DCD9D6",
"'	c #EB952F",
")	c #100A03",
"!	c #070401",
"~	c #E9932C",
"{	c #060401",
"]	c #EB942C",
"^	c #0C0802",
"/	c #120B03",
"(	c #DED1C1",
"_	c #DDD5CB",
":	c #DCDAD7",
"                        ",
"                        ",
"          ...           ",
"         ..+..          ",
"        ..+++..         ",
"       ..+++++..        ",
"       .+++++++.        ",
"       ...+++...        ",
" @@ .@@@@@@@@# @$%&@    ",
" @@..@@  *=-@; @@+>@@   ",
" @@.+@@...+++.,'@++.@@  ",
" '@+)@@+++++++!~@+++@@  ",
" '@+{]@+++@@@++~@+++@@  ",
" '@^)@@++++@@+/@@+++@@  ",
" @@(+@@...+@@..@@++.@@  ",
" @@_.@@  *+@@. @@+:@@   ",
" @@ .@@@@@@@@. @@@@@    ",
"       ...+++...        ",
"       .+++++++.        ",
"       ..+++++..        ",
"        ..+++..         ",
"         ..+..          ",
"          ...           ",
"                        "};
