/* XPM */
static const char * move_clashing_medium_bw[] = {
"24 24 62 1",
" 	g None",
".	g #DEDEDE",
"+	g #919191",
"@	g #7C7C7C",
"#	g #9D9D9D",
"$	g #8C8C8C",
"%	g #CDCDCD",
"&	g #FEFEFE",
"*	g #E5E5E5",
"=	g #A5A5A5",
"-	g #858585",
";	g #C8C8C8",
">	g #C1C1C1",
",	g #878787",
"'	g #B8B8B8",
")	g #F9F9F9",
"!	g #FCFCFC",
"~	g #B1B1B1",
"{	g #818181",
"]	g #989898",
"^	g #DBDBDB",
"/	g #7A7A7A",
"(	g #EDEDED",
"_	g #7F7F7F",
":	g #8B8B8B",
"<	g #B4B4B4",
"[	g #F3F3F3",
"}	g #F8F8F8",
"|	g #838383",
"1	g #C9C9C9",
"2	g #828282",
"3	g #AAAAAA",
"4	g #F2F2F2",
"5	g #FDFDFD",
"6	g #EFEFEF",
"7	g #BFBFBF",
"8	g #888888",
"9	g #7E7E7E",
"0	g #9A9A9A",
"a	g #D7D7D7",
"b	g #969696",
"c	g #A9A9A9",
"d	g #D9D9D9",
"e	g #9B9B9B",
"f	g #C0C0C0",
"g	g #ECECEC",
"h	g #7D7D7D",
"i	g #A8A8A8",
"j	g #848484",
"k	g #9F9F9F",
"l	g #BCBCBC",
"m	g #E6E6E6",
"n	g #929292",
"o	g #EBEBEB",
"p	g #D5D5D5",
"q	g #FAFAFA",
"r	g #808080",
"s	g #959595",
"t	g #E9E9E9",
"u	g #B2B2B2",
"v	g #A7A7A7",
"w	g #FBFBFB",
"                        ",
"     .+@       #$%&     ",
"    *=-;       >,')     ",
"   !~{]^   /   (_:<[    ",
"  }>|_;&  ///  }1_2345  ",
" 67890a  /////  (#22bc  ",
" 0-9;(} /////// )d102_  ",
" efg}     ///     &^1_  ",
"          ///           ",
"     /    ///    /      ",
"    //    ///    //     ",
"   /////////////////    ",
"  ///////////////////   ",
"   /////////////////    ",
"    //    ///    //     ",
"     /    ///    /      ",
" _1^      ///     }gfe  ",
" :,01d)   ///   }(;h_2  ",
" ;i,|#( /////// a0_jkl  ",
" !m<n|1} ///// &;_-~o5  ",
"  &!p$_(  ///  ^]{c(&   ",
"    q=_>   /   ;rst     ",
"     ur#       @_vw     ",
"                        "};
