/* XPM */
static const char * move_medium[] = {
"24 24 3 1",
" 	c None",
".	c #DCDCDC",
"+	c #000000",
"                        ",
"                        ",
"          ...           ",
"         ..+..          ",
"        ..+++..         ",
"       ..+++++..        ",
"       .+++++++.        ",
"       ...+++...        ",
"    ...  .+++.  ...     ",
"   ..+.  .+++.  .+..    ",
"  ..++....+++....++..   ",
" ..+++++++++++++++++..  ",
" .+++++++++++++++++++.  ",
" ..+++++++++++++++++..  ",
"  ..++....+++....++..   ",
"   ..+.  .+++.  .+..    ",
"    ...  .+++.  ...     ",
"       ...+++...        ",
"       .+++++++.        ",
"       ..+++++..        ",
"        ..+++..         ",
"         ..+..          ",
"          ...           ",
"                        "};
