/* XPM */
static const char * qfitTool[] = {
"24 24 8 1",
" 	c None",
".	c #D7B8A4",
"+	c #D75100",
"@	c #7E3000",
"#	c #5E5E5E",
"$	c #FF6000",
"%	c #FFFFFF",
"&	c #D7753B",
"                        ",
"                        ",
"  .+++++ .+++++ .+++++  ",
"  ++++++@++++++@++++++@ ",
"  ++++++@++++++@++++++@ ",
"  ++++++@++++++@++++++@ ",
"  +++######++######+++@ ",
"  ++##$$$$####$$$$##++@ ",
"   @#$$$$$$##$$$$$$#@@@ ",
"  .+#$$$$$$##$$$$$$#++  ",
"  ++#$$$$$$##$$$$$$#++@ ",
"  ++##$$$$####$$$$##++@ ",
"  +++##$$$$%%&$$$##+++@ ",
"  ++++####%%%%####++++@ ",
"  ++++++#%%%%%%#++++++@ ",
"   @@@@@#%%%%%%# @@@@@@ ",
"  .+++++##%%%%##.+++++  ",
"  ++++++@##%%##@++++++@ ",
"  ++++++@+####+@++++++@ ",
"  ++++++@++++++@++++++@ ",
"  ++++++@++++++@++++++@ ",
"  ++++++@++++++@++++++@ ",
"   @@@@@@ @@@@@@ @@@@@@ ",
"                        "};
