/* XPM */
static const char * qpdbTool[] = {
"24 24 12 1",
" 	c None",
".	c #D7B8A4",
"+	c #D75100",
"@	c #7E3000",
"#	c #D4713C",
"$	c #E6D144",
"%	c #80DC5C",
"&	c #E6942A",
"*	c #68E254",
"=	c #FFFFFF",
"-	c #FAF1DA",
";	c #FF875D",
"                        ",
"                        ",
"  .+++++ .+++++ .+++++  ",
"  ++++++@++++++@++++++@ ",
"  ++++++@++++++@++++++@ ",
"  ++++++@++++++@++++++@ ",
"  ++++++@++++++@++++++@ ",
"  ++++++@#$%%$#@++++++@ ",
"   @@@@@&******& @@@@@@ ",
"  .++++#**=*****-+++++  ",
"  +++++$********$+++++@ ",
"  +++++%********%+++++@ ",
"  +++++%********%+++++@ ",
"  +++++$********$+++++@ ",
"  +++++#********;+++++@ ",
"   @@@@@&******& @@@@@@ ",
"  .+++++ -$%%$; .+++++  ",
"  ++++++@++++++@++++++@ ",
"  ++++++@++++++@++++++@ ",
"  ++++++@++++++@++++++@ ",
"  ++++++@++++++@++++++@ ",
"  ++++++@++++++@++++++@ ",
"   @@@@@@ @@@@@@ @@@@@@ ",
"                        "};
