/* XPM */
static const char * raiseIcon[] = {
"13 16 2 1",
" 	c None",
".	c #000000",
"             ",
"      .      ",
"     ...     ",
"     ...     ",
"    .....    ",
"    .....    ",
"   .......   ",
"   .......   ",
"  .........  ",
"  .........  ",
" ........... ",
" ........... ",
".............",
" ........... ",
"             ",
"             "};
