/* XPM */
static const char * saveIcon[] = {
"21 16 5 1",
" 	c None",
".	c #000000",
"+	c #FFFFFF",
"@	c #7D7D7D",
"#	c #B0B0B0",
"                     ",
"   ...++++++++..     ",
"   ...+++++..+...    ",
"   ...+++++..+...@   ",
"   ...++++++++...@   ",
"   ..............@   ",
"   ..............@   ",
"   ..+++++++++#..@   ",
"   ..+++++++++#..@   ",
"   ..+++++++++#..@   ",
"   ..+++++++++#..@   ",
"   ..+++++++++#..@   ",
"   ..##########..@   ",
"   ..............@   ",
"   ..............@   ",
"    @@@@@@@@@@@@@@   "};
