/* XPM */
static const char * vol_orange_medium[] = {
"24 24 4 1",
" 	c None",
".	c #963900",
"+	c #FF6000",
"@	c #FFDAC3",
"                        ",
"                        ",
"  @+++++ @+++++ @+++++  ",
"  ++++++.++++++.++++++. ",
"  ++++++.++++++.++++++. ",
"  ++++++.++++++.++++++. ",
"  ++++++.++++++.++++++. ",
"  ++++++.++++++.++++++. ",
"   ...... ...... ...... ",
"  @+++++ @+++++ @+++++  ",
"  ++++++.++++++.++++++. ",
"  ++++++.++++++.++++++. ",
"  ++++++.++++++.++++++. ",
"  ++++++.++++++.++++++. ",
"  ++++++.++++++.++++++. ",
"   ...... ...... ...... ",
"  @+++++ @+++++ @+++++  ",
"  ++++++.++++++.++++++. ",
"  ++++++.++++++.++++++. ",
"  ++++++.++++++.++++++. ",
"  ++++++.++++++.++++++. ",
"  ++++++.++++++.++++++. ",
"   ...... ...... ...... ",
"                        "};
