/* XPM */
static const char *vol_green_grid_medium[] = {
/* columns rows colors chars-per-pixel */
"24 24 128 2",
"   c black",
".  c gray100",
"X  c #5F9B67",
"o  c #609C68",
"O  c #5F9A67",
"+  c #5E9966",
"@  c #5D9765",
"#  c #5C9664",
"$  c #5B9463",
"%  c #53875A",
"&  c #528559",
"*  c #508257",
"=  c #48754E",
"-  c #46724C",
";  c #45704B",
":  c #436D49",
">  c #385B3D",
",  c #36583B",
"<  c #304E34",
"1  c #5C9564",
"2  c #54885B",
"3  c #53865A",
"4  c #518358",
"5  c #508157",
"6  c #4F8056",
"7  c #49764F",
"8  c #47734D",
"9  c #46714C",
"0  c #446E4A",
"q  c #3B5F40",
"w  c #395C3E",
"e  c #37593C",
"r  c #639F6B",
"t  c #3D6242",
"y  c #64A06C",
"u  c #67A26F",
"i  c #66A16E",
"p  c #69A371",
"a  c #68A270",
"s  c #6CA574",
"d  c #6BA473",
"f  c #78AC7F",
"g  c #7BAE82",
"h  c #7AAD81",
"j  c #7DAF84",
"k  c #7CAE83",
"l  c #7FB086",
"z  c #8BB891",
"x  c #8AB790",
"c  c #8CB892",
"v  c #8DB993",
"b  c #8FBA95",
"n  c #90BB96",
"m  c #92BC98",
"M  c #9FC4A4",
"N  c #A6C8AB",
"B  c #B1CFB5",
"V  c #B3D0B7",
"C  c #D8E7DA",
"Z  c #D7E6D9",
"A  c #4C7C52",
"S  c #629F6A",
"D  c #619E69",
"F  c #5A9261",
"G  c #599160",
"H  c #588F5F",
"J  c #578D5E",
"K  c #568C5D",
"L  c #558A5C",
"P  c #4D7D53",
"I  c #4B7A51",
"U  c #4A7850",
"Y  c #49774F",
"T  c #426B47",
"R  c #406845",
"E  c #3D6342",
"W  c #599060",
"Q  c #568B5D",
"!  c #4E7E54",
"~  c #4C7B52",
"^  c #436C48",
"/  c #3F6644",
"(  c #3E6443",
")  c #345438",
"_  c #406745",
"`  c #335237",
"'  c #6EA675",
"]  c #6DA574",
"[  c #70A777",
"{  c #71A878",
"}  c #72A879",
"|  c #73A97A",
" . c #76AB7D",
".. c #82B288",
"X. c #81B187",
"o. c #83B389",
"O. c #85B48B",
"+. c #87B58D",
"@. c #95BE9A",
"#. c #94BD99",
"$. c #97BF9C",
"%. c #9CC2A1",
"&. c #AECDB2",
"*. c #BBD5BE",
"=. c #D3E4D5",
"-. c #D5E5D7",
";. c gray61",
":. c None",
">. c black",
",. c black",
"<. c black",
"1. c black",
"2. c black",
"3. c black",
"4. c black",
"5. c black",
"6. c black",
"7. c black",
"8. c black",
"9. c black",
"0. c black",
"q. c black",
"w. c black",
"e. c black",
"r. c black",
"t. c black",
"y. c black",
"u. c black",
/* pixels */
":.;.:.:.:.:.:.:.;.:.:.:.:.:.:.;.:.:.:.:.:.:.;.:.",
";.;.;.;.;.;.;.;.+.+.*.;.;.;.;.;.;.;.;.;.;.;.;.;.",
":.;.:.:.:.:.:.:.! L S F 4 % W M :.:.:.:.:.:.;.:.",
":.;.:.:.:.:.N e t 3 H = t * F ! w F N :.:.:.;.:.",
":.;.:.:.:.#./ ; P 4 L - A p | $ 7 q e @.:.:.;.:.",
":.;.:.:.:.: H u W 6 U 6 + j +.D ! J P p :.:.;.:.",
":.;.:.:.{ : { o.k D J D { +.v i ~ % # @ :.:.;.:.",
":.;.:.g ) 0 a X.n z | f X.x m r 6 Y Y ` { :.;.:.",
";.;.N & I - Q ' ..b { i y u o.p # & U _ I ;.;.;.",
":.N K * O U & s X.S & 1 1 & # l | i ] a 6 ' ;.:.",
":.X 7 A 6 A Q p { 3 B :.:.C 4 i h O.v k 3 K &.:.",
":.%.P ( 6 G ] o.W u :.:.:.:.g 2 v $...y 7 P x :.",
":.=.L T o j #.m K r :.:.:.:.g K o.} 1 * ; 9 J :.",
":.;.W 3  .c +.h d 3 B :.:.Z 4 a { J P P % 0 t :.",
":.;.#.5 y ] u ' l D & K O % # ..| L Y $ Q L g :.",
";.;.;.S w Y * $ i X.{ y y u v +.| G - A 3 h ;.;.",
":.;.:.V ) 9 Y ~ O c b X.k { +.n o.] A < K :.;.:.",
":.;.:.:.[ Q J Y O x z | r J + f O. .I 2 :.:.;.:.",
":.;.:.:.+.8 W P # o...D * U A Q r # = &.:.:.;.:.",
":.;.:.:.-.Y , ^ K } ' * : % 4 A - > n :.:.:.;.:.",
":.;.:.:.:.:.X U 7 F L E 8 F 3 R ) x :.:.:.:.;.:.",
":.;.:.:.:.:.:.:.*.O # X J L @ I :.:.:.:.:.:.;.:.",
";.;.;.;.;.;.;.;.;.;.;.;.;.' V j ;.;.;.;.;.;.;.;.",
":.;.:.:.:.:.:.:.;.:.:.:.:.:.:.;.:.:.:.:.:.:.;.:."
};
