/* XPM */
static const char *vol_orange_grid_medium[] = {
/* columns rows colors chars-per-pixel */
"24 24 256 2",
"   c black",
".  c gray100",
"X  c gray61",
"o  c #DADBDC",
"O  c #BFC0C1",
"+  c #DCE0E3",
"@  c #DCDFE1",
"#  c #FFB357",
"$  c #FFAB4F",
"%  c #FFAC51",
"&  c #FFA547",
"*  c #FFA448",
"=  c #FFA348",
"-  c #FFA649",
";  c #FFA64A",
":  c #FFA54B",
">  c #FFA74C",
",  c #C3C1BF",
"<  c #FF983D",
"1  c #FD9B40",
"2  c #FF9D42",
"3  c #FF9F44",
"4  c #FFA146",
"5  c #FF8F33",
"6  c #FF9135",
"7  c #FF8F35",
"8  c #FF9237",
"9  c #FF9238",
"0  c #FF953A",
"q  c #FF973D",
"w  c #F27417",
"e  c #FA7B1E",
"r  c #F87D21",
"t  c #FF862B",
"y  c #FE872E",
"u  c #FF8A2F",
"i  c #FF8C30",
"p  c #FB8830",
"a  c #FF8D33",
"s  c #FF8F36",
"d  c #DA5C08",
"f  c #F06A10",
"g  c #F56F13",
"h  c #FA7315",
"j  c #F37318",
"k  c #FF771C",
"l  c #FF7A1E",
"z  c #E9701E",
"x  c #E76F1D",
"c  c #FF7E22",
"v  c #FB7A22",
"b  c #E57120",
"n  c #FF7F25",
"m  c #F67A24",
"M  c #FF8228",
"N  c #F9822C",
"B  c #AA9E96",
"V  c #E0DDDB",
"C  c #E75700",
"Z  c #E25800",
"A  c #C44B00",
"S  c #DB5301",
"D  c #C74D01",
"F  c #A43F02",
"G  c #E25E07",
"H  c #AA4305",
"J  c #B34706",
"K  c #C14D07",
"L  c #E8610B",
"P  c #E6610C",
"I  c #E25D0C",
"U  c #D0550B",
"Y  c #AD4709",
"T  c #B44A0A",
"R  c #F46810",
"E  c #EF680F",
"W  c #BB4E0C",
"Q  c #F76812",
"!  c #F46B12",
"~  c #ED6411",
"^  c #DE5E10",
"/  c #CB560F",
"(  c #B44C0D",
")  c #A5460C",
"_  c #F16612",
"`  c #D55B10",
"'  c #C5540F",
"]  c #BA4F0E",
"[  c #B54D0E",
"{  c #AB490D",
"}  c #763209",
"|  c #F66A14",
" . c #EA6413",
".. c #E46112",
"X. c #BB500F",
"o. c #F86C15",
"O. c #B34D0F",
"+. c #B14C0F",
"@. c #F76C16",
"#. c #EE6815",
"$. c #EA6715",
"%. c #E46314",
"&. c #C25411",
"*. c #A9490F",
"=. c #F26A16",
"-. c #EF6A16",
";. c #FD6F18",
":. c #FA6F18",
">. c #EC6917",
",. c #FF7419",
"<. c #F97019",
"1. c #833A0D",
"2. c #F7701A",
"3. c #FD731B",
"4. c #B85214",
"5. c #EC6D1A",
"6. c #FF751D",
"7. c #FB751D",
"8. c #FF771E",
"9. c #F4731E",
"0. c #FC7821",
"q. c #A54C16",
"w. c #9E4915",
"e. c #8C4215",
"r. c #BC5A1D",
"t. c #753813",
"y. c #B25A25",
"u. c #AD5B28",
"i. c #914E25",
"p. c #B05F2E",
"a. c #BD6A38",
"s. c #8F5632",
"d. c #74472A",
"f. c #8D5938",
"g. c #C07E56",
"h. c #A56D4B",
"j. c #8B5D41",
"k. c #9D6A4B",
"l. c #B37B59",
"z. c #B28163",
"x. c #A1785F",
"c. c #AA836A",
"v. c #8A6D5B",
"b. c #B89884",
"n. c #BCA08F",
"m. c #A49388",
"M. c #D4C6BD",
"N. c #E75300",
"B. c #E15200",
"V. c #BE4400",
"C. c #A93E00",
"Z. c #A33A00",
"A. c #9F3900",
"S. c #913501",
"D. c #D54F03",
"F. c #B14403",
"G. c #ED5C05",
"H. c #813203",
"J. c #E75A06",
"K. c #B04505",
"L. c #AD4406",
"P. c #DC5609",
"I. c #DB5609",
"U. c #DA570A",
"Y. c #D8570A",
"T. c #D7550A",
"R. c #C9510A",
"E. c #EB5E0C",
"W. c #F1620E",
"Q. c #DE5B0D",
"!. c #C34F0B",
"~. c #BE4E0B",
"^. c #E25D0E",
"/. c #D4570D",
"(. c #D2550D",
"). c #C2500C",
"_. c #B2490B",
"`. c #F76610",
"'. c #E35E0F",
"]. c #DA5A0E",
"[. c #CA530D",
"{. c #C5510D",
"}. c #BD4D0C",
"|. c #BA4D0C",
" X c #B64A0C",
".X c #E05D0F",
"XX c #C0500D",
"oX c #BD4F0D",
"OX c #E76111",
"+X c #BC4F0E",
"@X c #AF490D",
"#X c #E15F12",
"$X c #BF510F",
"%X c #F36714",
"&X c #DA5C12",
"*X c #CD5711",
"=X c #A04510",
"-X c #A74911",
";X c #BC5314",
":X c #954110",
">X c #AB4C13",
",X c #C05718",
"<X c #BB561B",
"1X c #783711",
"2X c #894116",
"3X c #753713",
"4X c #B75820",
"5X c #7C3E19",
"6X c #B55B26",
"7X c #B45E2B",
"8X c #995025",
"9X c #743D1C",
"0X c #C2703F",
"qX c #955A37",
"wX c #A36540",
"eX c #895739",
"rX c #A66A46",
"tX c #9F6746",
"yX c #B37350",
"uX c #B37856",
"iX c #966549",
"pX c #A47254",
"aX c #93684F",
"sX c #8B654F",
"dX c #9A7058",
"fX c #8C6751",
"gX c #836452",
"hX c #AF8C77",
"jX c #8C7161",
"kX c #AA8F7F",
"lX c #BCA394",
"zX c #9B887D",
"xX c #C2ACA0",
"cX c #B8A59A",
"vX c #AD9D94",
"bX c #A99B93",
"nX c #C3B4AB",
"mX c #C5BBB5",
"MX c #BDB6B2",
"NX c #E04D00",
"BX c #D94C00",
"VX c #D34700",
"CX c #CB4300",
"ZX c #C44100",
"AX c #B13B00",
"SX c #9B3600",
"DX c #953400",
"FX c #B68A73",
"GX c #917769",
"HX c #BAACA5",
"JX c #CCBEB7",
"KX c #BA3900",
"LX c #AC3700",
"PX c #8F2D00",
"IX c #C1BFBF",
"UX c None",
/* pixels */
"UXX UXUXUXUXUXUXX UXUXUXUXUXUXX UXUXUXUXUXUXX UX",
"X X X X X X X X bXb.M.X X X X X X X X X X X X X ",
"UXX UXUXUXUXUXUXj.p.0XrXgXsXk.xXUXUXUXUXUXUXX UX",
"UXX UXUXUXUXMX9XA.D.N._.2X&.&X4.5XjXMXUXUXUXX UX",
"UXX UXUXUXlX:XF.+X' *X{ ~.o.l I T SX1.cXUXUXX UX",
"UXX UXUXUX=XC =.].).[ ).E.y < $.XX` CXl.UXUXX UX",
"UXX UXUXzXAX,.9 p $.I.~ 3.q * 5.|./ G.a.UXUXX UX",
"UXX UXkX3XL.| a : 3 v n 5 2 $ >.).+.( H.zXUXX UX",
"X X nX4XA -X/.;.s - e z b w 8 @.'.[. XF f.X X X ",
"UXnXwXVXOXO.[.2.5 f <Xh.h.y.P u 6.`.:.| !.c.X UX",
"UXGX8XD $X] T.o.e r.IXUXUX+ u.! M 0 = t BXwXmXUX",
"UXHXqXZ.).Q.9.9 G uXUXUXUXUXFXS & # 7 -.V.qXvXUX",
"UXo iXLX .y % $ Z yXUXUXUXUXFXd 8 m ^.{.K.i.v.UX",
"UXX k.D.c 4 q M h r.O UXUX@ u.j 3.P.oXX.U w.d.UX",
"UXX lX;XR <.Q ;.i E <XwXpX6XL 6 0.(.+.^ B.p.kXUX",
"X X X x.DX( {..X%Xa r x b g & q 6.Q.*.K ,XhXX X ",
"UXX UX, 1XY +.W OX4 ; 5 t 7.1 > 9 :.~.} aXUXX UX",
"UXX UXUXg.NX` ( %.2 3 8._ U...N 0 c ZXfXUXUXX UX",
"UXX UXUXb.KX].oX#X9 7 W.R.O.}./.#.G.@XmXUXUXX UX",
"UXX UXUXV s.PXH Y.k ;.R.) / ' ] J S.n.UXUXUXX UX",
"UXX UXUXUXUXGXeX>X&X*Xe.q.J.BXC.t.B UXUXUXUXX UX",
"UXX UXUXUXUXUXUXM.pXdXGXtX7Xa.f.UXUXUXUXUXUXX UX",
"X X X X X X X X X X X X X z.JXm.X X X X X X X X ",
"UXX UXUXUXUXUXUXX UXUXUXUXUXUXX UXUXUXUXUXUXX UX"
};
