/* XPM */
static const char * vol_bw_grid_medium[] = {
"24 24 103 2",
"  	c None",
". 	c #9C9C9C",
"+ 	c #BBBBBB",
"@ 	c #DDDDDD",
"# 	c #848484",
"$ 	c #8E8E8E",
"% 	c #9F9F9F",
"& 	c #959595",
"* 	c #888888",
"= 	c #8B8B8B",
"- 	c #939393",
"; 	c #CBCBCB",
"> 	c #D0D0D0",
", 	c #616161",
"' 	c #6A6A6A",
") 	c #8A8A8A",
"! 	c #929292",
"~ 	c #7B7B7B",
"{ 	c #878787",
"] 	c #646464",
"^ 	c #C4C4C4",
"/ 	c #6D6D6D",
"( 	c #767676",
"_ 	c #838383",
": 	c #797979",
"< 	c #828282",
"[ 	c #A5A5A5",
"} 	c #ADADAD",
"| 	c #969696",
"1 	c #7C7C7C",
"2 	c #676767",
"3 	c #C5C5C5",
"4 	c #747474",
"5 	c #A3A3A3",
"6 	c #858585",
"7 	c #7E7E7E",
"8 	c #9A9A9A",
"9 	c #B4B4B4",
"0 	c #9E9E9E",
"a 	c #919191",
"b 	c #ABABAB",
"c 	c #B9B9B9",
"d 	c #B3B3B3",
"e 	c #C0C0C0",
"f 	c #A2A2A2",
"g 	c #818181",
"h 	c #989898",
"i 	c #999999",
"j 	c #B2B2B2",
"k 	c #5C5C5C",
"l 	c #757575",
"m 	c #A4A4A4",
"n 	c #B7B7B7",
"o 	c #C1C1C1",
"p 	c #BEBEBE",
"q 	c #B0B0B0",
"r 	c #BDBDBD",
"s 	c #C3C3C3",
"t 	c #A0A0A0",
"u 	c #7D7D7D",
"v 	c #5A5A5A",
"w 	c #898989",
"x 	c #7F7F7F",
"y 	c #8F8F8F",
"z 	c #A9A9A9",
"A 	c #B8B8B8",
"B 	c #A1A1A1",
"C 	c #6E6E6E",
"D 	c #909090",
"E 	c #9B9B9B",
"F 	c #A7A7A7",
"G 	c #979797",
"H 	c #B5B5B5",
"I 	c #A8A8A8",
"J 	c #D7D7D7",
"K 	c #ECECEC",
"L 	c #B1B1B1",
"M 	c #BABABA",
"N 	c #D5D5D5",
"O 	c #CACACA",
"P 	c #6C6C6C",
"Q 	c #949494",
"R 	c #8D8D8D",
"S 	c #C6C6C6",
"T 	c #EAEAEA",
"U 	c #727272",
"V 	c #9D9D9D",
"W 	c #ACACAC",
"X 	c #787878",
"Y 	c #AFAFAF",
"Z 	c #BFBFBF",
"` 	c #A6A6A6",
" .	c #868686",
"..	c #D8D8D8",
"+.	c #565656",
"@.	c #AAAAAA",
"#.	c #7A7A7A",
"$.	c #EBEBEB",
"%.	c #606060",
"&.	c #737373",
"*.	c #626262",
"=.	c #6B6B6B",
"-.	c #6F6F6F",
"  .             .             .             .   ",
". . . . . . . . + + @ . . . . . . . . . . . . . ",
"  .             # $ % & * = - ;             .   ",
"  .         > , ' ) ! ~ ' { & # ] & >       .   ",
"  .       ^ / ( _ * $ : < [ } | 1 2 , 3     .   ",
"  .       4 ! 5 - 6 7 6 8 9 + 0 # a _ [     .   ",
"  .     b 4 b c d 0 a 0 b + e f g = h i     .   ",
"  .   j k l m n o p } q n r s t 6 u u v b   .   ",
". . > w x : y z A o b f B 5 c [ h w 7 C x . . . ",
"  > D { E 7 w F n % w G G w h H } f I m 6 z .   ",
"  . 1 < 6 < y [ b ) J     K * f L M e d ) D N   ",
"  O _ P 6 Q I c - 5         j R e S A B 1 _ r   ",
"  T $ U V 9 ^ s D t         j D c W G { ( X a   ",
"  . - ) Y Z + L ` ) J     K * m b a _ _ = l '   ",
"  . ^  .B I 5 z H 0 w D E = h A } $ u | y $ j   ",
". . . % ] u { | f n b B B 5 e + } Q : < ) L . . ",
"  .   ..k X u g E Z o n d b + o c I < +.D   .   ",
"  .     @.y a u E r p } t a 8 q M Y x R     .   ",
"  .     + #.- _ h c A 0 { 7 < y t h ~ N     .   ",
"  .     $.u %.&.D W z { 4 = * < : *.o       .   ",
"  .         . 7 1 & $ =.#.& ) -.k r         .   ",
"  .             @ E h . a $ i x             .   ",
". . . . . . . . . . . . . z ..9 . . . . . . . . ",
"  .             .             .             .   "};
