/* XPM */
static const char * volIcon[] = {
"32 32 425 2",
"  	c None",
". 	c #FFFFFF",
"+ 	c #CBC0BA",
"@ 	c #B8A397",
"# 	c #C2B1A7",
"$ 	c #EFECEA",
"% 	c #846C5E",
"& 	c #79370F",
"* 	c #A6480F",
"= 	c #B74E0F",
"- 	c #A54A14",
"; 	c #9D6542",
"> 	c #906C57",
", 	c #866857",
"' 	c #9B6D52",
") 	c #A07256",
"! 	c #B39888",
"~ 	c #D3CAC5",
"{ 	c #F1EFEE",
"] 	c #836350",
"^ 	c #803A0F",
"/ 	c #B04C0F",
"( 	c #D3590F",
"_ 	c #E56010",
": 	c #DF5E10",
"< 	c #B54D0F",
"[ 	c #7F390F",
"} 	c #A9490F",
"| 	c #CA560F",
"1 	c #CF5710",
"2 	c #B64E0F",
"3 	c #813A0F",
"4 	c #754B32",
"5 	c #A89990",
"6 	c #DDD8D5",
"7 	c #EEEBE9",
"8 	c #825236",
"9 	c #91400F",
"0 	c #A7480F",
"a 	c #BA500F",
"b 	c #CB560F",
"c 	c #DC5C0F",
"d 	c #DD5D10",
"e 	c #A8490F",
"f 	c #D95B0F",
"g 	c #F06814",
"h 	c #F36C17",
"i 	c #DE5D10",
"j 	c #9C440F",
"k 	c #883D0F",
"l 	c #6C3311",
"m 	c #C5B7AF",
"n 	c #965D3B",
"o 	c #BC500F",
"p 	c #CC560F",
"q 	c #C5540F",
"r 	c #C0510F",
"s 	c #BB500F",
"t 	c #B84F0F",
"u 	c #AC4A0F",
"v 	c #CD570F",
"w 	c #EF6714",
"x 	c #FD8028",
"y 	c #FE852D",
"z 	c #EB6412",
"A 	c #C6540F",
"B 	c #C0520F",
"C 	c #B44D0F",
"D 	c #884A25",
"E 	c #B89F90",
"F 	c #E76211",
"G 	c #F26B17",
"H 	c #EA6513",
"I 	c #DB5C0F",
"J 	c #C2520F",
"K 	c #D0580F",
"L 	c #E76110",
"M 	c #FB741D",
"N 	c #FF953C",
"O 	c #FF943B",
"P 	c #EF6916",
"Q 	c #BF510F",
"R 	c #D1580F",
"S 	c #DA5B0F",
"T 	c #CBB9AF",
"U 	c #EBE8E7",
"V 	c #7A4220",
"W 	c #CF5810",
"X 	c #F46D18",
"Y 	c #FF842C",
"Z 	c #FC8B33",
"` 	c #F47C26",
" .	c #EA6514",
"..	c #DC5D0F",
"+.	c #EC6411",
"@.	c #F86D17",
"#.	c #FF8028",
"$.	c #FF9F45",
"%.	c #FF9B42",
"&.	c #F16E1A",
"*.	c #CF570F",
"=.	c #AC856D",
"-.	c #997C6B",
";.	c #C9550F",
">.	c #F16814",
",.	c #FF862E",
"'.	c #FF9A40",
").	c #FF9A41",
"!.	c #FA8D35",
"~.	c #F26D18",
"{.	c #F06613",
"].	c #FA7922",
"^.	c #FF8930",
"/.	c #FFA54A",
"(.	c #FFA147",
"_.	c #BE510F",
":.	c #D35910",
"<.	c #C1520F",
"[.	c #8C4E28",
"}.	c #BDA495",
"|.	c #98430F",
"1.	c #8D3E0F",
"2.	c #E46010",
"3.	c #FB711B",
"4.	c #FF8A31",
"5.	c #FF9E44",
"6.	c #FC9B41",
"7.	c #FD7B23",
"8.	c #FF862D",
"9.	c #FF852B",
"0.	c #FFA148",
"a.	c #F16915",
"b.	c #D65A0F",
"c.	c #A0450F",
"d.	c #70330F",
"e.	c #AB9B92",
"f.	c #BFA698",
"g.	c #AE4B0F",
"h.	c #D85B0F",
"i.	c #A5480F",
"j.	c #FE7720",
"k.	c #FD8C33",
"l.	c #F3701B",
"m.	c #E87120",
"n.	c #E67524",
"o.	c #F16C17",
"p.	c #F78A33",
"q.	c #FF822A",
"r.	c #F96B16",
"s.	c #EC6412",
"t.	c #E05E10",
"u.	c #C7540F",
"v.	c #AF4B0F",
"w.	c #834B29",
"x.	c #E3DEDC",
"y.	c #8F4213",
"z.	c #D55A0F",
"A.	c #B24D0F",
"B.	c #EC6513",
"C.	c #FD7D25",
"D.	c #FF8E34",
"E.	c #FC761E",
"F.	c #E06011",
"G.	c #AC4B11",
"H.	c #A36A47",
"I.	c #A06744",
"J.	c #9F4814",
"K.	c #D55C12",
"L.	c #F7721C",
"M.	c #FE862D",
"N.	c #FD7C24",
"O.	c #F76B15",
"P.	c #F36713",
"Q.	c #F36814",
"R.	c #F06713",
"S.	c #E26010",
"T.	c #BD510F",
"U.	c #B2927F",
"V.	c #A69083",
"W.	c #99430F",
"X.	c #D2590F",
"Y.	c #D4590F",
"Z.	c #EA6412",
"`.	c #FA7D25",
" +	c #FF8C32",
".+	c #DD6518",
"++	c #965026",
"@+	c #D6CDC8",
"#+	c #E9E5E3",
"$+	c #966547",
"%+	c #C75B16",
"&+	c #FE832A",
"*+	c #FF832A",
"=+	c #FF7920",
"-+	c #FF8027",
";+	c #F8701A",
">+	c #D95C10",
",+	c #914B21",
"'+	c #A69489",
")+	c #C8550F",
"!+	c #DD5D0F",
"~+	c #EE6512",
"{+	c #FC771F",
"]+	c #F57722",
"^+	c #AE4B10",
"/+	c #D7CFCA",
"(+	c #F2F1F0",
"_+	c #9A4917",
":+	c #F16916",
"<+	c #FF7C23",
"[+	c #FF9238",
"}+	c #FFA348",
"|+	c #FFA54B",
"1+	c #FE8F36",
"2+	c #F56E19",
"3+	c #D65A10",
"4+	c #90400F",
"5+	c #D3CBC7",
"6+	c #D7D1CE",
"7+	c #E56111",
"8+	c #F5711C",
"9+	c #FC8A32",
"0+	c #FF963D",
"a+	c #ED6C1A",
"b+	c #994C1E",
"c+	c #9E6543",
"d+	c #E56515",
"e+	c #FF8D34",
"f+	c #FFB358",
"g+	c #FFA44A",
"h+	c #FC8830",
"i+	c #F16D18",
"j+	c #DC5D10",
"k+	c #8B3E0F",
"l+	c #B0A39B",
"m+	c #E8E6E5",
"n+	c #78370F",
"o+	c #ED6715",
"p+	c #FA8129",
"q+	c #FF9D44",
"r+	c #FFB156",
"s+	c #FF9A3F",
"t+	c #EE6C19",
"u+	c #954413",
"v+	c #FCFCFC",
"w+	c #9F6C4C",
"x+	c #E36415",
"y+	c #FF9137",
"z+	c #FD9139",
"A+	c #F77720",
"B+	c #E96413",
"C+	c #B34D0F",
"D+	c #9B877B",
"E+	c #854722",
"F+	c #F06815",
"G+	c #FD872E",
"H+	c #FFA349",
"I+	c #FF953B",
"J+	c #F76D18",
"K+	c #D4CCC7",
"L+	c #F1EFEF",
"M+	c #9A4D1E",
"N+	c #EE701C",
"O+	c #FD7921",
"P+	c #F26713",
"Q+	c #E05E0F",
"R+	c #CD560F",
"S+	c #9F450F",
"T+	c #77543F",
"U+	c #A37457",
"V+	c #CE570F",
"W+	c #F46B16",
"X+	c #FF852D",
"Y+	c #FF8B32",
"Z+	c #FF8129",
"`+	c #FF7921",
" @	c #FF7D24",
".@	c #FF872D",
"+@	c #E26415",
"@@	c #93512A",
"#@	c #D6CEC9",
"$@	c #EAE6E4",
"%@	c #976141",
"&@	c #CA5A14",
"*@	c #FE852C",
"=@	c #FB852D",
"-@	c #815B44",
";@	c #D1C2B8",
">@	c #AD4A0F",
",@	c #EE6613",
"'@	c #F26814",
")@	c #F36813",
"!@	c #F56914",
"~@	c #FC761F",
"{@	c #FE8A31",
"]@	c #FA761F",
"^@	c #DD6114",
"/@	c #AA4A10",
"(@	c #9A5D38",
"_@	c #A56E4E",
":@	c #A14C19",
"<@	c #D65B10",
"[@	c #F8711B",
"}@	c #FF8D33",
"|@	c #F26815",
"1@	c #A4470F",
"2@	c #C0B1A8",
"3@	c #9E7760",
"4@	c #DB5C10",
"5@	c #EA6312",
"6@	c #F56915",
"7@	c #FE7921",
"8@	c #F98F37",
"9@	c #F36F1A",
"0@	c #E8711F",
"a@	c #E57524",
"b@	c #F06B17",
"c@	c #FB822A",
"d@	c #FF9C41",
"e@	c #FF8E35",
"f@	c #FF7C24",
"g@	c #F66A15",
"h@	c #D95B10",
"i@	c #AB826A",
"j@	c #DDD9D6",
"k@	c #643112",
"l@	c #863C0F",
"m@	c #AA490F",
"n@	c #D2580F",
"o@	c #EA6413",
"p@	c #FE9239",
"q@	c #FFAE53",
"r@	c #FF9037",
"s@	c #FE7820",
"t@	c #FB933A",
"u@	c #FFA64B",
"v@	c #FFA247",
"w@	c #FF8F36",
"x@	c #FD771F",
"y@	c #EB6311",
"z@	c #8F3F0F",
"A@	c #A78069",
"B@	c #A27C65",
"C@	c #D25910",
"D@	c #C4530F",
"E@	c #B14C0F",
"F@	c #EA6716",
"G@	c #FF943A",
"H@	c #FFAB50",
"I@	c #FF892F",
"J@	c #FB8028",
"K@	c #EF6915",
"L@	c #F98830",
"M@	c #FF9940",
"N@	c #FF9C42",
"O@	c #F66E18",
"P@	c #D45A10",
"Q@	c #8C3E0F",
"R@	c #78513A",
"S@	c #CBBAB0",
"T@	c #E35F10",
"U@	c #E96715",
"V@	c #FB7019",
"W@	c #DF5E0F",
"X@	c #E66212",
"Y@	c #F37723",
"Z@	c #FA8931",
"`@	c #FF882F",
" #	c #F8731D",
".#	c #DA5C10",
"+#	c #8A3E10",
"@#	c #CBC4C0",
"##	c #9C4612",
"$#	c #C5530F",
"%#	c #E76313",
"&#	c #FF8931",
"*#	c #FF9B41",
"=#	c #FD7A23",
"-#	c #ED6411",
";#	c #D5590F",
">#	c #C3530F",
",#	c #D75A0F",
"'#	c #E76312",
")#	c #F16B17",
"!#	c #EB6513",
"~#	c #A1745A",
"{#	c #A07961",
"]#	c #A8480F",
"^#	c #E36011",
"/#	c #FC7E26",
"(#	c #B04B0F",
"_#	c #BD500F",
":#	c #944B1E",
"<#	c #EAE4E1",
"[#	c #EDE9E7",
"}#	c #704328",
"|#	c #7D380F",
"1#	c #96420F",
"2#	c #AB4A0F",
"3#	c #F26A16",
"4#	c #95420F",
"5#	c #7A411F",
"6#	c #D9D1CC",
"7#	c #C1B8B3",
"8#	c #977A69",
"9#	c #793B16",
"0#	c #A1460F",
"a#	c #D75B0F",
"b#	c #B84E0F",
"c#	c #8A3D0F",
"d#	c #785139",
"e#	c #E2DEDC",
"f#	c #F3F1F0",
"g#	c #C7B4A9",
"h#	c #A87E65",
"i#	c #A17256",
"j#	c #9A7C6A",
"k#	c #977B6A",
"l#	c #A47559",
"m#	c #A25425",
"n#	c #823A0F",
"o#	c #73523E",
"p#	c #D4C9C3",
"q#	c #C4B4AB",
"r#	c #CBC1BA",
"                                                                ",
"                    . . . . . .                                 ",
"                  . . + @ # $ . . . . . . . .                   ",
"              . . . % & * = - ; > , ' ) ! ~ . . . .             ",
"            . . { ] ^ / ( _ : < [ } | 1 2 3 4 5 6 . .           ",
"            . 7 8 9 0 a b c d } e f g h i < j k l m .           ",
"          . . n o p q r s o t u v w x y z A t B C D . .         ",
"        . . E s F G H I b B J K L M N O P p Q R S C T .         ",
"        . U V W X Y Z `  .I ..+.@.#.$.%.&.v t *._ b =..         ",
"      . . -.& ;.>.,.'.).!.~.{.].^.^./.(.&.*.2 _.:.<.[.. .       ",
"    . . }.|.1.C 2.3.4.5./.6.7.8.O 9./.0.a.b.q / c.1.d.e..       ",
"  . . f.g.h.Q i.K {.j.4.'.k.l.m.n.o.p.q.r.s.t.*.u.<.v.w.. .     ",
"  . x.y.z.L z.A.b B.C.D.E.F.G.H.I.J.K.L.M.N.O.P.Q.R.S.T.U..     ",
"  . V.W.X.Y.Q s R Z.`. +.+++@+. . #+$+%+&+*+=+-+4.^.;+>+,+. .   ",
"  . '+1.T._.a )+!+~+{+]+^+/+. . . . (+_+:+<+[+}+|+1+2+3+4+5+.   ",
"  . 6+[ v.Q K 7+8+9+0+a+b+. . . . . . c+d+e+f+g+h+i+j+Q k+l+.   ",
"  . m+n+= b.o+p+q+r+s+t+u+v+. . . . . w+x+y+z+A+B+z.J C+9 D+.   ",
"  . . E+p F+G+(.H+I+-+J+A.K+. . . . L+M+N+O+P+Q+R+o o B S+T+.   ",
"    . U+V+W+X+Y+Z+`+ @.@+@@@#@. . $@%@&@*@=@w b.T.s K b.g.-@.   ",
"    . ;@>@d ,@'@)@!@~@{@]@^@/@(@_@:@<@[@}@8.|@( < p _ ..1@2@.   ",
"    . . 3@i._.A p 4@5@6@7@8@9@0@a@b@c@d@e@f@g@h@g.C+h.s i@. .   ",
"      . j@k@l@W.m@B n@o@p@q@^.e+r@s@t@u@v@w@x@y@<.z@j A@. .     ",
"      . . B@< C@D@E@u.F@G@H@D.I@J@P+K@L@M@N@e+O@P@Q@R@. .       ",
"        . S@t T@z.t q U@r@/.8.V@~+W@h.X@Y@Z@`@ #.#+#@#.         ",
"        . $ ##z.Y.B $#%#&#*#=#-#;#>#_.u.,#'#)#!#;.~#. .         ",
"        . . {#]#T.t _.^#/#y W+b.(#E@_#t T.>#b >#:#<#.           ",
"          . [#}#|#1#2#z.a.3#: C j 3+i v _#m@4#5#6#. .           ",
"          . . . 7#8#9#u p v C+3 0#h@_ a#b#c#d#e#. .             ",
"              . . . f#g#h#i#j#k#l#m#E@} n#o#. . .               ",
"                  . . . . . . . . . p#q#r#. .                   ",
"                                  . . . . .                     ",
"                                                                "};
