/* XPM */
static const char * volCropTool[] = {
"32 32 345 2",
"  	c None",
". 	c #FFFFFF",
"+ 	c #D3D3D3",
"@ 	c #BFBFBF",
"# 	c #C8C8C8",
"$ 	c #989898",
"% 	c #777777",
"& 	c #878787",
"* 	c #8D8D8D",
"= 	c #888888",
"- 	c #969696",
"; 	c #999999",
"> 	c #959595",
", 	c #9B9B9B",
"' 	c #9F9F9F",
") 	c #B8B8B8",
"! 	c #DADADA",
"~ 	c #929292",
"{ 	c #797979",
"] 	c #8A8A8A",
"^ 	c #9E9E9E",
"/ 	c #9C9C9C",
"( 	c #949494",
"_ 	c #7A7A7A",
": 	c #828282",
"< 	c #B7B7B7",
"[ 	c #E3E3E3",
"} 	c #F0F0F0",
"| 	c #808080",
"1 	c #8E8E8E",
"2 	c #9A9A9A",
"3 	c #A4A4A4",
"4 	c #A6A6A6",
"5 	c #838383",
"6 	c #7C7C7C",
"7 	c #727272",
"8 	c #CDCDCD",
"9 	c #919191",
"0 	c #8F8F8F",
"a 	c #909090",
"b 	c #898989",
"c 	c #A3A3A3",
"d 	c #B0B0B0",
"e 	c #B2B2B2",
"f 	c #A1A1A1",
"g 	c #8C8C8C",
"h 	c #848484",
"i 	c #EBE8E7",
"j 	c #7A4220",
"k 	c #CF5810",
"l 	c #F46D18",
"m 	c #FF842C",
"n 	c #FC8B33",
"o 	c #F47C26",
"p 	c #EA6514",
"q 	c #DB5C0F",
"r 	c #DC5D0F",
"s 	c #EC6411",
"t 	c #F86D17",
"u 	c #FF8028",
"v 	c #FF9F45",
"w 	c #FF9B42",
"x 	c #F16E1A",
"y 	c #CD570F",
"z 	c #B84F0F",
"A 	c #CF570F",
"B 	c #E56010",
"C 	c #CB560F",
"D 	c #AC856D",
"E 	c #997C6B",
"F 	c #79370F",
"G 	c #C9550F",
"H 	c #F16814",
"I 	c #FF862E",
"J 	c #FF9A40",
"K 	c #FF9A41",
"L 	c #FA8D35",
"M 	c #F26D18",
"N 	c #F06613",
"O 	c #FA7922",
"P 	c #FF8930",
"Q 	c #FFA54A",
"R 	c #FFA147",
"S 	c #B64E0F",
"T 	c #BE510F",
"U 	c #D35910",
"V 	c #C1520F",
"W 	c #8C4E28",
"X 	c #98430F",
"Y 	c #8D3E0F",
"Z 	c #B44D0F",
"` 	c #E46010",
" .	c #FB711B",
"..	c #FF8A31",
"+.	c #FF9E44",
"@.	c #FC9B41",
"#.	c #FD7B23",
"$.	c #FF862D",
"%.	c #FF943B",
"&.	c #FF852B",
"*.	c #FFA148",
"=.	c #F16915",
"-.	c #D65A0F",
";.	c #C5540F",
">.	c #B04C0F",
",.	c #A0450F",
"'.	c #70330F",
").	c #C2C2C2",
"!.	c #D85B0F",
"~.	c #BF510F",
"{.	c #A5480F",
"].	c #D0580F",
"^.	c #FE7720",
"/.	c #FD8C33",
"(.	c #F3701B",
"_.	c #E87120",
":.	c #E67524",
"<.	c #F16C17",
"[.	c #F78A33",
"}.	c #FF822A",
"|.	c #F96B16",
"1.	c #EC6412",
"2.	c #E05E10",
"3.	c #C7540F",
"4.	c #AF4B0F",
"5.	c #E8E8E8",
"6.	c #E76110",
"7.	c #D55A0F",
"8.	c #B24D0F",
"9.	c #EC6513",
"0.	c #FD7D25",
"a.	c #FF8E34",
"b.	c #FC761E",
"c.	c #E06011",
"d.	c #AC4B11",
"e.	c #A36A47",
"f.	c #A06744",
"g.	c #9F4814",
"h.	c #D55C12",
"i.	c #F7721C",
"j.	c #FE862D",
"k.	c #FD7C24",
"l.	c #F76B15",
"m.	c #F36713",
"n.	c #F36814",
"o.	c #F06713",
"p.	c #E26010",
"q.	c #B4B4B4",
"r.	c #B1B1B1",
"s.	c #D4590F",
"t.	c #BB500F",
"u.	c #D1580F",
"v.	c #EA6412",
"w.	c #FA7D25",
"x.	c #FF8C32",
"y.	c #DD6518",
"z.	c #965026",
"A.	c #D6CDC8",
"B.	c #E9E5E3",
"C.	c #966547",
"D.	c #C75B16",
"E.	c #FE832A",
"F.	c #FF832A",
"G.	c #FF7920",
"H.	c #FF8027",
"I.	c #F8701A",
"J.	c #868686",
"K.	c #B3B3B3",
"L.	c #7E7E7E",
"M.	c #BA500F",
"N.	c #C8550F",
"O.	c #DD5D0F",
"P.	c #EE6512",
"Q.	c #FC771F",
"R.	c #F57722",
"S.	c #AE4B10",
"T.	c #D7CFCA",
"U.	c #F2F1F0",
"V.	c #9A4917",
"W.	c #F16916",
"X.	c #FF7C23",
"Y.	c #FF9238",
"Z.	c #FFA348",
"`.	c #FFA54B",
" +	c #FE8F36",
".+	c #F56E19",
"++	c #7F7F7F",
"@+	c #DBDBDB",
"#+	c #DEDEDE",
"$+	c #E56111",
"%+	c #F5711C",
"&+	c #FC8A32",
"*+	c #FF963D",
"=+	c #ED6C1A",
"-+	c #994C1E",
";+	c #9E6543",
">+	c #E56515",
",+	c #FF8D34",
"'+	c #FFB358",
")+	c #FFA44A",
"!+	c #FC8830",
"~+	c #F16D18",
"{+	c #DC5D10",
"]+	c #7D7D7D",
"^+	c #BDBDBD",
"/+	c #EDEDED",
"(+	c #767676",
"_+	c #ED6715",
":+	c #FA8129",
"<+	c #FF9D44",
"[+	c #FFB156",
"}+	c #FF9A3F",
"|+	c #EE6C19",
"1+	c #954413",
"2+	c #FCFCFC",
"3+	c #9F6C4C",
"4+	c #E36415",
"5+	c #FF9137",
"6+	c #FD9139",
"7+	c #F77720",
"8+	c #E96413",
"9+	c #C2520F",
"0+	c #ABABAB",
"a+	c #F06815",
"b+	c #FD872E",
"c+	c #FFA349",
"d+	c #FF953B",
"e+	c #F76D18",
"f+	c #D4CCC7",
"g+	c #F1EFEF",
"h+	c #9A4D1E",
"i+	c #EE701C",
"j+	c #FD7921",
"k+	c #F26713",
"l+	c #E05E0F",
"m+	c #CD560F",
"n+	c #BC500F",
"o+	c #858585",
"p+	c #A0A0A0",
"q+	c #F46B16",
"r+	c #FF852D",
"s+	c #FF8B32",
"t+	c #FF8129",
"u+	c #FF7921",
"v+	c #FF7D24",
"w+	c #FF872D",
"x+	c #E26415",
"y+	c #93512A",
"z+	c #D6CEC9",
"A+	c #EAE6E4",
"B+	c #976141",
"C+	c #CA5A14",
"D+	c #FE852C",
"E+	c #FB852D",
"F+	c #EF6714",
"G+	c #BD510F",
"H+	c #D4D4D4",
"I+	c #DD5D10",
"J+	c #EE6613",
"K+	c #F26814",
"L+	c #F36813",
"M+	c #F56914",
"N+	c #FC761F",
"O+	c #FE8A31",
"P+	c #FA761F",
"Q+	c #DD6114",
"R+	c #AA4A10",
"S+	c #9A5D38",
"T+	c #A56E4E",
"U+	c #A14C19",
"V+	c #D65B10",
"W+	c #F8711B",
"X+	c #FF8D33",
"Y+	c #F26815",
"Z+	c #D3590F",
"`+	c #B54D0F",
" @	c #CC560F",
".@	c #C6540F",
"+@	c #DB5C10",
"@@	c #EA6312",
"#@	c #F56915",
"$@	c #FE7921",
"%@	c #F98F37",
"&@	c #F36F1A",
"*@	c #E8711F",
"=@	c #E57524",
"-@	c #F06B17",
";@	c #FB822A",
">@	c #FF9C41",
",@	c #FF8E35",
"'@	c #FF7C24",
")@	c #F66A15",
"!@	c #D95B10",
"~@	c #AE4B0F",
"{@	c #B34D0F",
"]@	c #AAAAAA",
"^@	c #643112",
"/@	c #863C0F",
"(@	c #99430F",
"_@	c #AA490F",
":@	c #C0520F",
"<@	c #D2580F",
"[@	c #EA6413",
"}@	c #FE9239",
"|@	c #FFAE53",
"1@	c #FF9037",
"2@	c #FE7820",
"3@	c #FB933A",
"4@	c #FFA64B",
"5@	c #FFA247",
"6@	c #FF8F36",
"7@	c #FD771F",
"8@	c #EB6311",
"9@	c #8F3F0F",
"0@	c #9C440F",
"a@	c #A27C65",
"b@	c #D25910",
"c@	c #C4530F",
"d@	c #B14C0F",
"e@	c #EA6716",
"f@	c #FF943A",
"g@	c #FFAB50",
"h@	c #FF892F",
"i@	c #FB8028",
"j@	c #EF6915",
"k@	c #F98830",
"l@	c #FF9940",
"m@	c #FF9C42",
"n@	c #F66E18",
"o@	c #D45A10",
"p@	c #8C3E0F",
"q@	c #78513A",
"r@	c #BABABA",
"s@	c #AEAEAE",
"t@	c #A2A2A2",
"u@	c #939393",
"v@	c #A5A5A5",
"w@	c #AFAFAF",
"x@	c #8B8B8B",
"y@	c #ECECEC",
"z@	c #787878",
"A@	c #818181",
"B@	c #CBCBCB",
"C@	c #A7A7A7",
"D@	c #D9D9D9",
"                                                                ",
"                    . . . . . .                                 ",
"                  . . + @ #   . . . . . . . .                   ",
"                . . $ % & * = - ; > , ' ) ! . . . .             ",
"            . . . ~ { ] $ ^ / * { = ( - * _ : < [ . .           ",
"            . } = | = 1 > 2 , = = 2 3 4 / * 5 6 7 8 .           ",
"          . . 9 0 > ~ a 0 0 * b > c d e f ~ * a g h . .         ",
"        . . . . . . . . . . . . . . . . . . . . . . . .         ",
"        . i j k l m n o p q r s t u v w x y z A B C D .         ",
"      . . E F G H I J K L M N O P P Q R x A S T U V W . .       ",
"    . . . X Y Z `  ...+.Q @.#.$.%.&.Q *.=.-.;.>.,.Y '.. .       ",
"  . . ).. !.~.{.].N ^...J /.(._.:.<.[.}.|.1.2.A 3.V 4.. . .     ",
"  . 5.| . 6.7.8.C 9.0.a.b.c.d.e.f.g.h.i.j.k.l.m.n.o.p.. q..     ",
"  . r.: . s.~.t.u.v.w.x.y.z.A.. . B.C.D.E.F.G.H...P I.. J.. .   ",
"  . K.L.. T M.N.O.P.Q.R.S.T.. . . . U.V.W.X.Y.Z.`. +.+. ++@+.   ",
"  . #+{ . ~.].$+%+&+*+=+-+. . . . . . ;+>+,+'+)+!+~+{+. ]+^+.   ",
"  . /+(+. -._+:+<+[+}+|+1+2+. . . . . 3+4+5+6+7+8+7.9+. | 0+.   ",
"  . . : . a+b+R c+d+H.e+8.f+. . . . g+h+i+j+k+l+m+n+n+. o+= .   ",
"    . p+. q+r+s+t+u+v+w+x+y+z+. . A+B+C+D+E+F+-.G+t.].. ] * .   ",
"    . H+. I+J+K+L+M+N+O+P+Q+R+S+T+U+V+W+X+$.Y+Z+`+ @B . J.# .   ",
"    . . . {.T .@ @+@@@#@$@%@&@*@=@-@;@>@,@'@)@!@~@{@!.. ]@. .   ",
"      . . ^@/@(@_@:@<@[@}@|@P ,+1@2@3@4@5@6@7@8@V 9@0@. . .     ",
"      . . a@`+b@c@d@3.e@f@g@a.h@i@k+j@k@l@m@,+n@o@p@q@. .       ",
"        . . . . . . . . . . . . . . . . . . . . . . . .         ",
"        .   o+$ $ a ~ p+q.r@s@t@$ ~ a u@; p+v@t@( p+. .         ",
"        . . c = a * a ^ w@e 4 $ ] x@a * a ~ > ~ J.y@.           ",
"          . } ]+z@A@b $ v@v@/ g 5 ; / > a = A@]+#+. .           ",
"          . . . 8 c { b > > g _ o+2 ^ ; * ]+o+5.. .             ",
"              . . . . B@C@' 3 c f * x@= _ o+. . .               ",
"                    . . . . . . . . D@B@+ . .                   ",
"                                  . . . . .                     ",
"                                                                "};
