/* XPM */
static const char * world_medium[] = {
"24 24 5 1",
" 	c None",
".	c #656764",
"+	c #81827F",
"@	c #B3B5B2",
"#	c #EBEDEA",
"                        ",
"                        ",
"           ##           ",
"        @####++.        ",
"      ++@####+++++      ",
"     +++++@+++.+++.     ",
"    #++++++++++.+++.    ",
"    #@+++++++++++...    ",
"   ##@+++++++++.++...   ",
"   ####@++++++++++...   ",
"   #####+++++++++@@+.   ",
"  ######++++++++@###..  ",
"  @#####@++++.+++###..  ",
"   #####@+++++++@##+.   ",
"   ###@@++++..+@##@+.   ",
"   +++++++.++++###@..   ",
"    ++++++++.++##++.    ",
"    ++.++++++.+++...    ",
"     +.+++++.......     ",
"      ++.+++++....      ",
"        ++++....        ",
"           ..           ",
"                        ",
"                        "};
