/* XPM */
static const char * zoomInTool[] = {
"22 22 124 2",
"  	c None",
". 	c #767875",
"+ 	c #6F706C",
"@ 	c #70716D",
"# 	c #6E706B",
"$ 	c #6D6F6A",
"% 	c #7A7C78",
"& 	c #6D6F6C",
"* 	c #CBCCCA",
"= 	c #DADBDC",
"- 	c #D4D6D9",
"; 	c #D1D5D9",
"> 	c #D7D8DA",
", 	c #CACAC9",
"' 	c #6C6E6B",
") 	c #6F716C",
"! 	c #DADBDB",
"~ 	c #96A9C1",
"{ 	c #6D97C5",
"] 	c #75A1CF",
"^ 	c #729FCE",
"/ 	c #6893C2",
"( 	c #9BADC2",
"_ 	c #DEDEDE",
": 	c #6C6E6A",
"< 	c #DADADA",
"[ 	c #8AA6C5",
"} 	c #729FCF",
"| 	c #C7D8EB",
"1 	c #E2EBF5",
"2 	c #DFE9F3",
"3 	c #AEC8E3",
"4 	c #8EA8C5",
"5 	c #DBDBDB",
"6 	c #6B6D69",
"7 	c #7C7E7A",
"8 	c #A7A8A6",
"9 	c #9EAFC4",
"0 	c #D6E2F1",
"a 	c #E7EEF7",
"b 	c #ECF2F8",
"c 	c #E3EBF5",
"d 	c #D1E0F0",
"e 	c #97B8DB",
"f 	c #719ECE",
"g 	c #ADBACA",
"h 	c #A3A4A1",
"i 	c #7F817D",
"j 	c #696B66",
"k 	c #DADAD9",
"l 	c #6690BF",
"m 	c #ACC6E2",
"n 	c #D9E4F1",
"o 	c #E0E9F4",
"p 	c #E3EBF4",
"q 	c #E0E9F3",
"r 	c #CEDDED",
"s 	c #80A7D4",
"t 	c #729ECF",
"u 	c #81A3CA",
"v 	c #D9D9D8",
"w 	c #D8DADB",
"x 	c #4070AC",
"y 	c #3465A4",
"z 	c #4E79B0",
"A 	c #D7E4F1",
"B 	c #D5E2F0",
"C 	c #78A1D1",
"D 	c #739FCF",
"E 	c #729DCF",
"F 	c #E2E2E2",
"G 	c #6C6E69",
"H 	c #DFDFDF",
"I 	c #B7CEE6",
"J 	c #C0D3E9",
"K 	c #A2BEDF",
"L 	c #749ED0",
"M 	c #6E9AC9",
"N 	c #838580",
"O 	c #C4C4C4",
"P 	c #618AB9",
"Q 	c #89A9CB",
"R 	c #C9C9C8",
"S 	c #848682",
"T 	c #828481",
"U 	c #729ECE",
"V 	c #6C97C7",
"W 	c #D2D9E0",
"X 	c #676965",
"Y 	c #747671",
"Z 	c #C5CCD2",
"` 	c #939592",
" .	c #868785",
"..	c #686966",
"+.	c #C0D3E8",
"@.	c #BBD1E7",
"#.	c #BCD1E7",
"$.	c #B6CDE6",
"%.	c #B5CCE6",
"&.	c #B6CCE6",
"*.	c #6A6B68",
"=.	c #B8B8B7",
"-.	c #858784",
";.	c #747672",
">.	c #666864",
",.	c #B4CCE5",
"'.	c #95B7DB",
").	c #94B6DB",
"!.	c #92B4DA",
"~.	c #90B3DA",
"{.	c #86ADD9",
"].	c #83AAD8",
"^.	c #7FA8D7",
"/.	c #7DA6D7",
"(.	c #9FBEE0",
"_.	c #6D6E6B",
":.	c #B7B7B5",
"<.	c #898B88",
"[.	c #C7C7C7",
"}.	c #6C6D6A",
"|.	c #3B68A1",
"1.	c #6B6B6B",
"2.	c #CBCBCA",
"3.	c #D6D6D6",
"                                            ",
"                                            ",
"                                            ",
"              . + @ # $ %                   ",
"            & * = - ; > , '                 ",
"          ) ! ~ { ] ^ / ( _ #               ",
"        : < [ } | 1 2 3 ^ 4 5 6             ",
"      7 8 9 ^ 0 a b c d e f g h i           ",
"      j k l m n o p q r s t u v j           ",
"      # w x y y z A B C D E f F #           ",
"      G H y I I y J K E L D M 5 G           ",
"      N O y I I y E E E E P Q R S           ",
"        T y I I y E U E V ^ W X Y           ",
"  y y y y y I I y y y y x Z `  ...          ",
"  y +.@.#.I I I I $.%.&.y *.=.-.;.>.        ",
"  y ,.'.).!.~.{.].^./.(.y   _.:.<.[.}.      ",
"  y y y y y {.{.y y y y |.  1.}.2.3.}.      ",
"          y I {.y               }.}.        ",
"          y I {.y                           ",
"          y I I y                           ",
"          y y y y                           ",
"                                            "};
